<mxfile host="app.diagrams.net" agent="Mozilla/5.0 (X11; Linux x86_64) AppleWebKit/537.36 (KHTML, like Gecko) Chrome/135.0.0.0 Safari/537.36" version="27.1.0">
  <diagram name="Page-1" id="dV4gOR_IBtZmmg_PkJwF">
    <mxGraphModel dx="1678" dy="895" grid="1" gridSize="10" guides="1" tooltips="1" connect="1" arrows="1" fold="1" page="1" pageScale="1" pageWidth="827" pageHeight="1169" math="0" shadow="0">
      <root>
        <mxCell id="0" />
        <mxCell id="1" parent="0" />
        <mxCell id="qTxGkBUJVbdwnP7Ffih2-326" value="" style="rounded=0;whiteSpace=wrap;html=1;" vertex="1" parent="1">
          <mxGeometry x="630" y="910" width="260" height="100" as="geometry" />
        </mxCell>
        <mxCell id="qTxGkBUJVbdwnP7Ffih2-57" value="http://mpmanager.com/api/" style="rounded=0;whiteSpace=wrap;html=1;fillColor=#b0e3e6;strokeColor=#0e8088;" vertex="1" parent="1">
          <mxGeometry x="70" y="120" width="830" height="30" as="geometry" />
        </mxCell>
        <mxCell id="qTxGkBUJVbdwnP7Ffih2-59" value="orders/" style="rounded=0;whiteSpace=wrap;html=1;fillColor=#b1ddf0;strokeColor=#10739e;" vertex="1" parent="1">
          <mxGeometry x="190" y="160" width="350" height="30" as="geometry" />
        </mxCell>
        <mxCell id="qTxGkBUJVbdwnP7Ffih2-60" value="marketplaces/" style="rounded=0;whiteSpace=wrap;html=1;fillColor=#b1ddf0;strokeColor=#10739e;" vertex="1" parent="1">
          <mxGeometry x="70" y="160" width="110" height="30" as="geometry" />
        </mxCell>
        <mxCell id="qTxGkBUJVbdwnP7Ffih2-158" style="edgeStyle=orthogonalEdgeStyle;rounded=0;orthogonalLoop=1;jettySize=auto;html=1;exitX=0.12;exitY=0.97;exitDx=0;exitDy=0;exitPerimeter=0;entryX=0;entryY=0.5;entryDx=0;entryDy=0;" edge="1" parent="1" source="qTxGkBUJVbdwnP7Ffih2-62" target="qTxGkBUJVbdwnP7Ffih2-67">
          <mxGeometry relative="1" as="geometry">
            <Array as="points">
              <mxPoint x="83" y="255" />
            </Array>
          </mxGeometry>
        </mxCell>
        <mxCell id="qTxGkBUJVbdwnP7Ffih2-159" style="edgeStyle=orthogonalEdgeStyle;rounded=0;orthogonalLoop=1;jettySize=auto;html=1;exitX=0.12;exitY=0.97;exitDx=0;exitDy=0;exitPerimeter=0;entryX=0;entryY=0.5;entryDx=0;entryDy=0;" edge="1" parent="1" source="qTxGkBUJVbdwnP7Ffih2-62" target="qTxGkBUJVbdwnP7Ffih2-68">
          <mxGeometry relative="1" as="geometry">
            <Array as="points">
              <mxPoint x="83" y="335" />
            </Array>
          </mxGeometry>
        </mxCell>
        <mxCell id="qTxGkBUJVbdwnP7Ffih2-160" style="edgeStyle=orthogonalEdgeStyle;rounded=0;orthogonalLoop=1;jettySize=auto;html=1;exitX=0.12;exitY=0.97;exitDx=0;exitDy=0;exitPerimeter=0;entryX=0;entryY=0.5;entryDx=0;entryDy=0;" edge="1" parent="1" source="qTxGkBUJVbdwnP7Ffih2-62" target="qTxGkBUJVbdwnP7Ffih2-69">
          <mxGeometry relative="1" as="geometry">
            <Array as="points">
              <mxPoint x="83" y="415" />
            </Array>
          </mxGeometry>
        </mxCell>
        <mxCell id="qTxGkBUJVbdwnP7Ffih2-161" style="edgeStyle=orthogonalEdgeStyle;rounded=0;orthogonalLoop=1;jettySize=auto;html=1;exitX=0.12;exitY=0.97;exitDx=0;exitDy=0;exitPerimeter=0;entryX=0;entryY=0.5;entryDx=0;entryDy=0;" edge="1" parent="1" source="qTxGkBUJVbdwnP7Ffih2-62" target="qTxGkBUJVbdwnP7Ffih2-70">
          <mxGeometry relative="1" as="geometry">
            <Array as="points">
              <mxPoint x="83" y="495" />
            </Array>
          </mxGeometry>
        </mxCell>
        <mxCell id="qTxGkBUJVbdwnP7Ffih2-162" style="edgeStyle=orthogonalEdgeStyle;rounded=0;orthogonalLoop=1;jettySize=auto;html=1;exitX=0.12;exitY=0.97;exitDx=0;exitDy=0;exitPerimeter=0;entryX=0;entryY=0.5;entryDx=0;entryDy=0;" edge="1" parent="1" source="qTxGkBUJVbdwnP7Ffih2-62" target="qTxGkBUJVbdwnP7Ffih2-71">
          <mxGeometry relative="1" as="geometry">
            <Array as="points">
              <mxPoint x="83" y="575" />
            </Array>
          </mxGeometry>
        </mxCell>
        <mxCell id="qTxGkBUJVbdwnP7Ffih2-163" style="edgeStyle=orthogonalEdgeStyle;rounded=0;orthogonalLoop=1;jettySize=auto;html=1;exitX=0.12;exitY=0.97;exitDx=0;exitDy=0;exitPerimeter=0;entryX=0;entryY=0.5;entryDx=0;entryDy=0;" edge="1" parent="1" source="qTxGkBUJVbdwnP7Ffih2-62" target="qTxGkBUJVbdwnP7Ffih2-72">
          <mxGeometry relative="1" as="geometry">
            <Array as="points">
              <mxPoint x="83" y="655" />
            </Array>
          </mxGeometry>
        </mxCell>
        <mxCell id="qTxGkBUJVbdwnP7Ffih2-62" value="marketplaces/" style="rounded=0;whiteSpace=wrap;html=1;points=[[0,0,0,0,0],[0,0.25,0,0,0],[0,0.5,0,0,0],[0,0.75,0,0,0],[0,1,0,0,0],[0.12,0.97,0,0,0],[0.25,0,0,0,0],[0.5,0,0,0,0],[0.5,1,0,0,0],[0.75,0,0,0,0],[0.75,1,0,0,0],[1,0,0,0,0],[1,0.25,0,0,0],[1,0.5,0,0,0],[1,0.75,0,0,0],[1,1,0,0,0]];fillColor=#bac8d3;strokeColor=#23445d;" vertex="1" parent="1">
          <mxGeometry x="70" y="200" width="110" height="30" as="geometry" />
        </mxCell>
        <mxCell id="qTxGkBUJVbdwnP7Ffih2-164" style="edgeStyle=orthogonalEdgeStyle;rounded=0;orthogonalLoop=1;jettySize=auto;html=1;exitX=0.5;exitY=1;exitDx=0;exitDy=0;entryX=0.5;entryY=0;entryDx=0;entryDy=0;" edge="1" parent="1" source="qTxGkBUJVbdwnP7Ffih2-67" target="qTxGkBUJVbdwnP7Ffih2-142">
          <mxGeometry relative="1" as="geometry" />
        </mxCell>
        <mxCell id="qTxGkBUJVbdwnP7Ffih2-67" value="{id}/" style="rounded=0;whiteSpace=wrap;html=1;fillColor=#dae8fc;strokeColor=#6c8ebf;" vertex="1" parent="1">
          <mxGeometry x="100" y="240" width="80" height="30" as="geometry" />
        </mxCell>
        <mxCell id="qTxGkBUJVbdwnP7Ffih2-166" style="edgeStyle=orthogonalEdgeStyle;rounded=0;orthogonalLoop=1;jettySize=auto;html=1;exitX=0.5;exitY=1;exitDx=0;exitDy=0;entryX=0.5;entryY=0;entryDx=0;entryDy=0;" edge="1" parent="1" source="qTxGkBUJVbdwnP7Ffih2-68" target="qTxGkBUJVbdwnP7Ffih2-143">
          <mxGeometry relative="1" as="geometry" />
        </mxCell>
        <mxCell id="qTxGkBUJVbdwnP7Ffih2-68" value="" style="rounded=0;whiteSpace=wrap;html=1;fillColor=#dae8fc;strokeColor=#6c8ebf;" vertex="1" parent="1">
          <mxGeometry x="100" y="320" width="80" height="30" as="geometry" />
        </mxCell>
        <mxCell id="qTxGkBUJVbdwnP7Ffih2-167" style="edgeStyle=orthogonalEdgeStyle;rounded=0;orthogonalLoop=1;jettySize=auto;html=1;exitX=0.5;exitY=1;exitDx=0;exitDy=0;entryX=0.5;entryY=0;entryDx=0;entryDy=0;" edge="1" parent="1" source="qTxGkBUJVbdwnP7Ffih2-69" target="qTxGkBUJVbdwnP7Ffih2-144">
          <mxGeometry relative="1" as="geometry" />
        </mxCell>
        <mxCell id="qTxGkBUJVbdwnP7Ffih2-69" value="" style="rounded=0;whiteSpace=wrap;html=1;fillColor=#d5e8d4;strokeColor=#82b366;" vertex="1" parent="1">
          <mxGeometry x="100" y="400" width="80" height="30" as="geometry" />
        </mxCell>
        <mxCell id="qTxGkBUJVbdwnP7Ffih2-168" style="edgeStyle=orthogonalEdgeStyle;rounded=0;orthogonalLoop=1;jettySize=auto;html=1;exitX=0.5;exitY=1;exitDx=0;exitDy=0;entryX=0.5;entryY=0;entryDx=0;entryDy=0;" edge="1" parent="1" source="qTxGkBUJVbdwnP7Ffih2-70" target="qTxGkBUJVbdwnP7Ffih2-145">
          <mxGeometry relative="1" as="geometry" />
        </mxCell>
        <mxCell id="qTxGkBUJVbdwnP7Ffih2-70" value="{id}/" style="rounded=0;whiteSpace=wrap;html=1;fillColor=#e1d5e7;strokeColor=#9673a6;" vertex="1" parent="1">
          <mxGeometry x="100" y="480" width="80" height="30" as="geometry" />
        </mxCell>
        <mxCell id="qTxGkBUJVbdwnP7Ffih2-169" style="edgeStyle=orthogonalEdgeStyle;rounded=0;orthogonalLoop=1;jettySize=auto;html=1;exitX=0.5;exitY=1;exitDx=0;exitDy=0;entryX=0.5;entryY=0;entryDx=0;entryDy=0;" edge="1" parent="1" source="qTxGkBUJVbdwnP7Ffih2-71" target="qTxGkBUJVbdwnP7Ffih2-146">
          <mxGeometry relative="1" as="geometry" />
        </mxCell>
        <mxCell id="qTxGkBUJVbdwnP7Ffih2-71" value="{id}/" style="rounded=0;whiteSpace=wrap;html=1;fillColor=#ffe6cc;strokeColor=#d79b00;" vertex="1" parent="1">
          <mxGeometry x="100" y="560" width="80" height="30" as="geometry" />
        </mxCell>
        <mxCell id="qTxGkBUJVbdwnP7Ffih2-170" style="edgeStyle=orthogonalEdgeStyle;rounded=0;orthogonalLoop=1;jettySize=auto;html=1;exitX=0.5;exitY=1;exitDx=0;exitDy=0;entryX=0.5;entryY=0;entryDx=0;entryDy=0;" edge="1" parent="1" source="qTxGkBUJVbdwnP7Ffih2-72" target="qTxGkBUJVbdwnP7Ffih2-147">
          <mxGeometry relative="1" as="geometry" />
        </mxCell>
        <mxCell id="qTxGkBUJVbdwnP7Ffih2-72" value="{id}/" style="rounded=0;whiteSpace=wrap;html=1;fillColor=#f8cecc;strokeColor=#b85450;" vertex="1" parent="1">
          <mxGeometry x="100" y="640" width="80" height="30" as="geometry" />
        </mxCell>
        <mxCell id="qTxGkBUJVbdwnP7Ffih2-171" style="edgeStyle=orthogonalEdgeStyle;rounded=0;orthogonalLoop=1;jettySize=auto;html=1;exitX=0.12;exitY=1;exitDx=0;exitDy=0;exitPerimeter=0;entryX=0;entryY=0.5;entryDx=0;entryDy=0;" edge="1" parent="1" source="qTxGkBUJVbdwnP7Ffih2-74" target="qTxGkBUJVbdwnP7Ffih2-75">
          <mxGeometry relative="1" as="geometry">
            <Array as="points">
              <mxPoint x="203" y="255" />
            </Array>
          </mxGeometry>
        </mxCell>
        <mxCell id="qTxGkBUJVbdwnP7Ffih2-172" style="edgeStyle=orthogonalEdgeStyle;rounded=0;orthogonalLoop=1;jettySize=auto;html=1;exitX=0.12;exitY=1;exitDx=0;exitDy=0;exitPerimeter=0;entryX=0;entryY=0.5;entryDx=0;entryDy=0;" edge="1" parent="1" source="qTxGkBUJVbdwnP7Ffih2-74" target="qTxGkBUJVbdwnP7Ffih2-76">
          <mxGeometry relative="1" as="geometry">
            <Array as="points">
              <mxPoint x="203" y="335" />
            </Array>
          </mxGeometry>
        </mxCell>
        <mxCell id="qTxGkBUJVbdwnP7Ffih2-173" style="edgeStyle=orthogonalEdgeStyle;rounded=0;orthogonalLoop=1;jettySize=auto;html=1;exitX=0.12;exitY=1;exitDx=0;exitDy=0;exitPerimeter=0;entryX=0;entryY=0.5;entryDx=0;entryDy=0;" edge="1" parent="1" source="qTxGkBUJVbdwnP7Ffih2-74" target="qTxGkBUJVbdwnP7Ffih2-77">
          <mxGeometry relative="1" as="geometry">
            <Array as="points">
              <mxPoint x="203" y="415" />
            </Array>
          </mxGeometry>
        </mxCell>
        <mxCell id="qTxGkBUJVbdwnP7Ffih2-174" style="edgeStyle=orthogonalEdgeStyle;rounded=0;orthogonalLoop=1;jettySize=auto;html=1;exitX=0.12;exitY=1;exitDx=0;exitDy=0;exitPerimeter=0;entryX=0;entryY=0.5;entryDx=0;entryDy=0;" edge="1" parent="1" source="qTxGkBUJVbdwnP7Ffih2-74" target="qTxGkBUJVbdwnP7Ffih2-78">
          <mxGeometry relative="1" as="geometry">
            <Array as="points">
              <mxPoint x="203" y="495" />
            </Array>
          </mxGeometry>
        </mxCell>
        <mxCell id="qTxGkBUJVbdwnP7Ffih2-175" style="edgeStyle=orthogonalEdgeStyle;rounded=0;orthogonalLoop=1;jettySize=auto;html=1;exitX=0.12;exitY=1;exitDx=0;exitDy=0;exitPerimeter=0;entryX=0;entryY=0.5;entryDx=0;entryDy=0;" edge="1" parent="1" source="qTxGkBUJVbdwnP7Ffih2-74" target="qTxGkBUJVbdwnP7Ffih2-79">
          <mxGeometry relative="1" as="geometry">
            <Array as="points">
              <mxPoint x="203" y="575" />
            </Array>
          </mxGeometry>
        </mxCell>
        <mxCell id="qTxGkBUJVbdwnP7Ffih2-176" style="edgeStyle=orthogonalEdgeStyle;rounded=0;orthogonalLoop=1;jettySize=auto;html=1;exitX=0.12;exitY=1;exitDx=0;exitDy=0;exitPerimeter=0;entryX=0;entryY=0.5;entryDx=0;entryDy=0;" edge="1" parent="1" source="qTxGkBUJVbdwnP7Ffih2-74" target="qTxGkBUJVbdwnP7Ffih2-80">
          <mxGeometry relative="1" as="geometry">
            <Array as="points">
              <mxPoint x="203" y="655" />
            </Array>
          </mxGeometry>
        </mxCell>
        <mxCell id="qTxGkBUJVbdwnP7Ffih2-177" style="edgeStyle=orthogonalEdgeStyle;rounded=0;orthogonalLoop=1;jettySize=auto;html=1;exitX=0.12;exitY=1;exitDx=0;exitDy=0;exitPerimeter=0;entryX=0;entryY=0.5;entryDx=0;entryDy=0;" edge="1" parent="1" source="qTxGkBUJVbdwnP7Ffih2-74" target="qTxGkBUJVbdwnP7Ffih2-81">
          <mxGeometry relative="1" as="geometry">
            <Array as="points">
              <mxPoint x="203" y="735" />
            </Array>
          </mxGeometry>
        </mxCell>
        <mxCell id="qTxGkBUJVbdwnP7Ffih2-178" style="edgeStyle=orthogonalEdgeStyle;rounded=0;orthogonalLoop=1;jettySize=auto;html=1;exitX=0.12;exitY=1;exitDx=0;exitDy=0;exitPerimeter=0;entryX=0;entryY=0.5;entryDx=0;entryDy=0;" edge="1" parent="1" source="qTxGkBUJVbdwnP7Ffih2-74" target="qTxGkBUJVbdwnP7Ffih2-82">
          <mxGeometry relative="1" as="geometry">
            <Array as="points">
              <mxPoint x="203" y="815" />
            </Array>
          </mxGeometry>
        </mxCell>
        <mxCell id="qTxGkBUJVbdwnP7Ffih2-179" style="edgeStyle=orthogonalEdgeStyle;rounded=0;orthogonalLoop=1;jettySize=auto;html=1;exitX=0.12;exitY=1;exitDx=0;exitDy=0;exitPerimeter=0;entryX=0;entryY=0.5;entryDx=0;entryDy=0;" edge="1" parent="1" source="qTxGkBUJVbdwnP7Ffih2-74" target="qTxGkBUJVbdwnP7Ffih2-83">
          <mxGeometry relative="1" as="geometry">
            <Array as="points">
              <mxPoint x="203" y="895" />
            </Array>
          </mxGeometry>
        </mxCell>
        <mxCell id="qTxGkBUJVbdwnP7Ffih2-180" style="edgeStyle=orthogonalEdgeStyle;rounded=0;orthogonalLoop=1;jettySize=auto;html=1;exitX=0.12;exitY=1;exitDx=0;exitDy=0;exitPerimeter=0;entryX=0;entryY=0.5;entryDx=0;entryDy=0;" edge="1" parent="1" source="qTxGkBUJVbdwnP7Ffih2-74" target="qTxGkBUJVbdwnP7Ffih2-84">
          <mxGeometry relative="1" as="geometry">
            <Array as="points">
              <mxPoint x="203" y="975" />
            </Array>
          </mxGeometry>
        </mxCell>
        <mxCell id="qTxGkBUJVbdwnP7Ffih2-74" value="orders/" style="rounded=0;whiteSpace=wrap;html=1;points=[[0,0,0,0,0],[0,0.25,0,0,0],[0,0.5,0,0,0],[0,0.75,0,0,0],[0,1,0,0,0],[0.12,1,0,0,0],[0.25,0,0,0,0],[0.5,0,0,0,0],[0.5,1,0,0,0],[0.75,0,0,0,0],[0.75,1,0,0,0],[1,0,0,0,0],[1,0.25,0,0,0],[1,0.5,0,0,0],[1,0.75,0,0,0],[1,1,0,0,0]];fillColor=#bac8d3;strokeColor=#23445d;" vertex="1" parent="1">
          <mxGeometry x="190" y="200" width="110" height="30" as="geometry" />
        </mxCell>
        <mxCell id="qTxGkBUJVbdwnP7Ffih2-181" style="edgeStyle=orthogonalEdgeStyle;rounded=0;orthogonalLoop=1;jettySize=auto;html=1;exitX=0.5;exitY=1;exitDx=0;exitDy=0;entryX=0.5;entryY=0;entryDx=0;entryDy=0;" edge="1" parent="1" source="qTxGkBUJVbdwnP7Ffih2-75" target="qTxGkBUJVbdwnP7Ffih2-148">
          <mxGeometry relative="1" as="geometry" />
        </mxCell>
        <mxCell id="qTxGkBUJVbdwnP7Ffih2-75" value="{id}/" style="rounded=0;whiteSpace=wrap;html=1;fillColor=#dae8fc;strokeColor=#6c8ebf;" vertex="1" parent="1">
          <mxGeometry x="220" y="240" width="80" height="30" as="geometry" />
        </mxCell>
        <mxCell id="qTxGkBUJVbdwnP7Ffih2-182" style="edgeStyle=orthogonalEdgeStyle;rounded=0;orthogonalLoop=1;jettySize=auto;html=1;exitX=0.5;exitY=1;exitDx=0;exitDy=0;entryX=0.5;entryY=0;entryDx=0;entryDy=0;" edge="1" parent="1" source="qTxGkBUJVbdwnP7Ffih2-76" target="qTxGkBUJVbdwnP7Ffih2-149">
          <mxGeometry relative="1" as="geometry" />
        </mxCell>
        <mxCell id="qTxGkBUJVbdwnP7Ffih2-76" value="" style="rounded=0;whiteSpace=wrap;html=1;fillColor=#dae8fc;strokeColor=#6c8ebf;" vertex="1" parent="1">
          <mxGeometry x="220" y="320" width="80" height="30" as="geometry" />
        </mxCell>
        <mxCell id="qTxGkBUJVbdwnP7Ffih2-183" style="edgeStyle=orthogonalEdgeStyle;rounded=0;orthogonalLoop=1;jettySize=auto;html=1;exitX=0.5;exitY=1;exitDx=0;exitDy=0;entryX=0.5;entryY=0;entryDx=0;entryDy=0;" edge="1" parent="1" source="qTxGkBUJVbdwnP7Ffih2-77" target="qTxGkBUJVbdwnP7Ffih2-150">
          <mxGeometry relative="1" as="geometry" />
        </mxCell>
        <mxCell id="qTxGkBUJVbdwnP7Ffih2-77" value="" style="rounded=0;whiteSpace=wrap;html=1;fillColor=#d5e8d4;strokeColor=#82b366;" vertex="1" parent="1">
          <mxGeometry x="220" y="400" width="80" height="30" as="geometry" />
        </mxCell>
        <mxCell id="qTxGkBUJVbdwnP7Ffih2-184" style="edgeStyle=orthogonalEdgeStyle;rounded=0;orthogonalLoop=1;jettySize=auto;html=1;exitX=0.5;exitY=1;exitDx=0;exitDy=0;entryX=0.5;entryY=0;entryDx=0;entryDy=0;" edge="1" parent="1" source="qTxGkBUJVbdwnP7Ffih2-78" target="qTxGkBUJVbdwnP7Ffih2-151">
          <mxGeometry relative="1" as="geometry" />
        </mxCell>
        <mxCell id="qTxGkBUJVbdwnP7Ffih2-78" value="{id}/" style="rounded=0;whiteSpace=wrap;html=1;fillColor=#e1d5e7;strokeColor=#9673a6;" vertex="1" parent="1">
          <mxGeometry x="220" y="480" width="80" height="30" as="geometry" />
        </mxCell>
        <mxCell id="qTxGkBUJVbdwnP7Ffih2-185" style="edgeStyle=orthogonalEdgeStyle;rounded=0;orthogonalLoop=1;jettySize=auto;html=1;exitX=0.5;exitY=1;exitDx=0;exitDy=0;entryX=0.5;entryY=0;entryDx=0;entryDy=0;" edge="1" parent="1" source="qTxGkBUJVbdwnP7Ffih2-79" target="qTxGkBUJVbdwnP7Ffih2-152">
          <mxGeometry relative="1" as="geometry" />
        </mxCell>
        <mxCell id="qTxGkBUJVbdwnP7Ffih2-79" value="{id}/" style="rounded=0;whiteSpace=wrap;html=1;fillColor=#ffe6cc;strokeColor=#d79b00;" vertex="1" parent="1">
          <mxGeometry x="220" y="560" width="80" height="30" as="geometry" />
        </mxCell>
        <mxCell id="qTxGkBUJVbdwnP7Ffih2-186" style="edgeStyle=orthogonalEdgeStyle;rounded=0;orthogonalLoop=1;jettySize=auto;html=1;exitX=0.5;exitY=1;exitDx=0;exitDy=0;entryX=0.5;entryY=0;entryDx=0;entryDy=0;" edge="1" parent="1" source="qTxGkBUJVbdwnP7Ffih2-80" target="qTxGkBUJVbdwnP7Ffih2-153">
          <mxGeometry relative="1" as="geometry" />
        </mxCell>
        <mxCell id="qTxGkBUJVbdwnP7Ffih2-80" value="{id}/" style="rounded=0;whiteSpace=wrap;html=1;fillColor=#f8cecc;strokeColor=#b85450;" vertex="1" parent="1">
          <mxGeometry x="220" y="640" width="80" height="30" as="geometry" />
        </mxCell>
        <mxCell id="qTxGkBUJVbdwnP7Ffih2-187" style="edgeStyle=orthogonalEdgeStyle;rounded=0;orthogonalLoop=1;jettySize=auto;html=1;exitX=0.5;exitY=1;exitDx=0;exitDy=0;entryX=0.5;entryY=0;entryDx=0;entryDy=0;" edge="1" parent="1" source="qTxGkBUJVbdwnP7Ffih2-81" target="qTxGkBUJVbdwnP7Ffih2-154">
          <mxGeometry relative="1" as="geometry" />
        </mxCell>
        <mxCell id="qTxGkBUJVbdwnP7Ffih2-81" value="sales-chart/" style="rounded=0;whiteSpace=wrap;html=1;fillColor=#d5e8d4;strokeColor=#82b366;" vertex="1" parent="1">
          <mxGeometry x="220" y="720" width="80" height="30" as="geometry" />
        </mxCell>
        <mxCell id="qTxGkBUJVbdwnP7Ffih2-188" style="edgeStyle=orthogonalEdgeStyle;rounded=0;orthogonalLoop=1;jettySize=auto;html=1;exitX=0.5;exitY=1;exitDx=0;exitDy=0;entryX=0.5;entryY=0;entryDx=0;entryDy=0;" edge="1" parent="1" source="qTxGkBUJVbdwnP7Ffih2-82" target="qTxGkBUJVbdwnP7Ffih2-155">
          <mxGeometry relative="1" as="geometry" />
        </mxCell>
        <mxCell id="qTxGkBUJVbdwnP7Ffih2-82" value="share-chart/" style="rounded=0;whiteSpace=wrap;html=1;fillColor=#d5e8d4;strokeColor=#82b366;" vertex="1" parent="1">
          <mxGeometry x="220" y="800" width="80" height="30" as="geometry" />
        </mxCell>
        <mxCell id="qTxGkBUJVbdwnP7Ffih2-189" style="edgeStyle=orthogonalEdgeStyle;rounded=0;orthogonalLoop=1;jettySize=auto;html=1;exitX=0.5;exitY=1;exitDx=0;exitDy=0;entryX=0.5;entryY=0;entryDx=0;entryDy=0;" edge="1" parent="1" source="qTxGkBUJVbdwnP7Ffih2-83" target="qTxGkBUJVbdwnP7Ffih2-156">
          <mxGeometry relative="1" as="geometry" />
        </mxCell>
        <mxCell id="qTxGkBUJVbdwnP7Ffih2-83" value="summary-stats/" style="rounded=0;whiteSpace=wrap;html=1;fillColor=#dae8fc;strokeColor=#6c8ebf;" vertex="1" parent="1">
          <mxGeometry x="220" y="880" width="80" height="30" as="geometry" />
        </mxCell>
        <mxCell id="qTxGkBUJVbdwnP7Ffih2-190" style="edgeStyle=orthogonalEdgeStyle;rounded=0;orthogonalLoop=1;jettySize=auto;html=1;exitX=0.5;exitY=1;exitDx=0;exitDy=0;entryX=0.5;entryY=0;entryDx=0;entryDy=0;" edge="1" parent="1" source="qTxGkBUJVbdwnP7Ffih2-84" target="qTxGkBUJVbdwnP7Ffih2-157">
          <mxGeometry relative="1" as="geometry" />
        </mxCell>
        <mxCell id="qTxGkBUJVbdwnP7Ffih2-84" value="paginated/" style="rounded=0;whiteSpace=wrap;html=1;fillColor=#dae8fc;strokeColor=#6c8ebf;" vertex="1" parent="1">
          <mxGeometry x="220" y="960" width="80" height="30" as="geometry" />
        </mxCell>
        <mxCell id="qTxGkBUJVbdwnP7Ffih2-192" style="edgeStyle=orthogonalEdgeStyle;rounded=0;orthogonalLoop=1;jettySize=auto;html=1;exitX=0.12;exitY=1;exitDx=0;exitDy=0;exitPerimeter=0;entryX=0;entryY=0.5;entryDx=0;entryDy=0;" edge="1" parent="1" source="qTxGkBUJVbdwnP7Ffih2-87" target="qTxGkBUJVbdwnP7Ffih2-88">
          <mxGeometry relative="1" as="geometry">
            <Array as="points">
              <mxPoint x="323" y="255" />
            </Array>
          </mxGeometry>
        </mxCell>
        <mxCell id="qTxGkBUJVbdwnP7Ffih2-194" style="edgeStyle=orthogonalEdgeStyle;rounded=0;orthogonalLoop=1;jettySize=auto;html=1;exitX=0.12;exitY=1;exitDx=0;exitDy=0;exitPerimeter=0;entryX=0;entryY=0.5;entryDx=0;entryDy=0;" edge="1" parent="1" source="qTxGkBUJVbdwnP7Ffih2-87" target="qTxGkBUJVbdwnP7Ffih2-89">
          <mxGeometry relative="1" as="geometry">
            <Array as="points">
              <mxPoint x="323" y="335" />
            </Array>
          </mxGeometry>
        </mxCell>
        <mxCell id="qTxGkBUJVbdwnP7Ffih2-196" style="edgeStyle=orthogonalEdgeStyle;rounded=0;orthogonalLoop=1;jettySize=auto;html=1;exitX=0.12;exitY=1;exitDx=0;exitDy=0;exitPerimeter=0;entryX=0;entryY=0.5;entryDx=0;entryDy=0;" edge="1" parent="1" source="qTxGkBUJVbdwnP7Ffih2-87" target="qTxGkBUJVbdwnP7Ffih2-90">
          <mxGeometry relative="1" as="geometry">
            <Array as="points">
              <mxPoint x="323" y="415" />
            </Array>
          </mxGeometry>
        </mxCell>
        <mxCell id="qTxGkBUJVbdwnP7Ffih2-197" style="edgeStyle=orthogonalEdgeStyle;rounded=0;orthogonalLoop=1;jettySize=auto;html=1;exitX=0.12;exitY=1;exitDx=0;exitDy=0;exitPerimeter=0;entryX=0;entryY=0.5;entryDx=0;entryDy=0;" edge="1" parent="1" source="qTxGkBUJVbdwnP7Ffih2-87" target="qTxGkBUJVbdwnP7Ffih2-91">
          <mxGeometry relative="1" as="geometry">
            <Array as="points">
              <mxPoint x="323" y="495" />
            </Array>
          </mxGeometry>
        </mxCell>
        <mxCell id="qTxGkBUJVbdwnP7Ffih2-198" style="edgeStyle=orthogonalEdgeStyle;rounded=0;orthogonalLoop=1;jettySize=auto;html=1;exitX=0.12;exitY=1;exitDx=0;exitDy=0;exitPerimeter=0;entryX=0;entryY=0.5;entryDx=0;entryDy=0;" edge="1" parent="1" source="qTxGkBUJVbdwnP7Ffih2-87" target="qTxGkBUJVbdwnP7Ffih2-92">
          <mxGeometry relative="1" as="geometry">
            <Array as="points">
              <mxPoint x="323" y="575" />
            </Array>
          </mxGeometry>
        </mxCell>
        <mxCell id="qTxGkBUJVbdwnP7Ffih2-199" style="edgeStyle=orthogonalEdgeStyle;rounded=0;orthogonalLoop=1;jettySize=auto;html=1;exitX=0.12;exitY=1;exitDx=0;exitDy=0;exitPerimeter=0;entryX=0;entryY=0.5;entryDx=0;entryDy=0;" edge="1" parent="1" source="qTxGkBUJVbdwnP7Ffih2-87" target="qTxGkBUJVbdwnP7Ffih2-93">
          <mxGeometry relative="1" as="geometry">
            <Array as="points">
              <mxPoint x="323" y="655" />
            </Array>
          </mxGeometry>
        </mxCell>
        <mxCell id="qTxGkBUJVbdwnP7Ffih2-200" style="edgeStyle=orthogonalEdgeStyle;rounded=0;orthogonalLoop=1;jettySize=auto;html=1;exitX=0.12;exitY=1;exitDx=0;exitDy=0;exitPerimeter=0;entryX=0;entryY=0.5;entryDx=0;entryDy=0;" edge="1" parent="1" source="qTxGkBUJVbdwnP7Ffih2-87" target="qTxGkBUJVbdwnP7Ffih2-94">
          <mxGeometry relative="1" as="geometry">
            <Array as="points">
              <mxPoint x="323" y="735" />
            </Array>
          </mxGeometry>
        </mxCell>
        <mxCell id="qTxGkBUJVbdwnP7Ffih2-87" value="customers/" style="rounded=0;whiteSpace=wrap;html=1;points=[[0,0,0,0,0],[0,0.25,0,0,0],[0,0.5,0,0,0],[0,0.75,0,0,0],[0,1,0,0,0],[0.12,1,0,0,0],[0.25,0,0,0,0],[0.5,0,0,0,0],[0.5,1,0,0,0],[0.75,0,0,0,0],[0.75,1,0,0,0],[1,0,0,0,0],[1,0.25,0,0,0],[1,0.5,0,0,0],[1,0.75,0,0,0],[1,1,0,0,0]];fillColor=#bac8d3;strokeColor=#23445d;" vertex="1" parent="1">
          <mxGeometry x="310" y="200" width="110" height="30" as="geometry" />
        </mxCell>
        <mxCell id="qTxGkBUJVbdwnP7Ffih2-208" style="edgeStyle=orthogonalEdgeStyle;rounded=0;orthogonalLoop=1;jettySize=auto;html=1;exitX=0.5;exitY=1;exitDx=0;exitDy=0;entryX=0.5;entryY=0;entryDx=0;entryDy=0;" edge="1" parent="1" source="qTxGkBUJVbdwnP7Ffih2-88" target="qTxGkBUJVbdwnP7Ffih2-201">
          <mxGeometry relative="1" as="geometry" />
        </mxCell>
        <mxCell id="qTxGkBUJVbdwnP7Ffih2-88" value="{id}/" style="rounded=0;whiteSpace=wrap;html=1;fillColor=#dae8fc;strokeColor=#6c8ebf;" vertex="1" parent="1">
          <mxGeometry x="340" y="240" width="80" height="30" as="geometry" />
        </mxCell>
        <mxCell id="qTxGkBUJVbdwnP7Ffih2-209" style="edgeStyle=orthogonalEdgeStyle;rounded=0;orthogonalLoop=1;jettySize=auto;html=1;exitX=0.5;exitY=1;exitDx=0;exitDy=0;entryX=0.5;entryY=0;entryDx=0;entryDy=0;" edge="1" parent="1" source="qTxGkBUJVbdwnP7Ffih2-89" target="qTxGkBUJVbdwnP7Ffih2-202">
          <mxGeometry relative="1" as="geometry" />
        </mxCell>
        <mxCell id="qTxGkBUJVbdwnP7Ffih2-89" value="" style="rounded=0;whiteSpace=wrap;html=1;fillColor=#dae8fc;strokeColor=#6c8ebf;" vertex="1" parent="1">
          <mxGeometry x="340" y="320" width="80" height="30" as="geometry" />
        </mxCell>
        <mxCell id="qTxGkBUJVbdwnP7Ffih2-210" style="edgeStyle=orthogonalEdgeStyle;rounded=0;orthogonalLoop=1;jettySize=auto;html=1;exitX=0.5;exitY=1;exitDx=0;exitDy=0;entryX=0.5;entryY=0;entryDx=0;entryDy=0;" edge="1" parent="1" source="qTxGkBUJVbdwnP7Ffih2-90" target="qTxGkBUJVbdwnP7Ffih2-203">
          <mxGeometry relative="1" as="geometry" />
        </mxCell>
        <mxCell id="qTxGkBUJVbdwnP7Ffih2-90" value="" style="rounded=0;whiteSpace=wrap;html=1;fillColor=#d5e8d4;strokeColor=#82b366;" vertex="1" parent="1">
          <mxGeometry x="340" y="400" width="80" height="30" as="geometry" />
        </mxCell>
        <mxCell id="qTxGkBUJVbdwnP7Ffih2-211" style="edgeStyle=orthogonalEdgeStyle;rounded=0;orthogonalLoop=1;jettySize=auto;html=1;exitX=0.5;exitY=1;exitDx=0;exitDy=0;" edge="1" parent="1" source="qTxGkBUJVbdwnP7Ffih2-91" target="qTxGkBUJVbdwnP7Ffih2-204">
          <mxGeometry relative="1" as="geometry" />
        </mxCell>
        <mxCell id="qTxGkBUJVbdwnP7Ffih2-91" value="{id}/" style="rounded=0;whiteSpace=wrap;html=1;fillColor=#e1d5e7;strokeColor=#9673a6;" vertex="1" parent="1">
          <mxGeometry x="340" y="480" width="80" height="30" as="geometry" />
        </mxCell>
        <mxCell id="qTxGkBUJVbdwnP7Ffih2-212" style="edgeStyle=orthogonalEdgeStyle;rounded=0;orthogonalLoop=1;jettySize=auto;html=1;exitX=0.5;exitY=1;exitDx=0;exitDy=0;entryX=0.5;entryY=0;entryDx=0;entryDy=0;" edge="1" parent="1" source="qTxGkBUJVbdwnP7Ffih2-92" target="qTxGkBUJVbdwnP7Ffih2-205">
          <mxGeometry relative="1" as="geometry" />
        </mxCell>
        <mxCell id="qTxGkBUJVbdwnP7Ffih2-92" value="{id}/" style="rounded=0;whiteSpace=wrap;html=1;fillColor=#ffe6cc;strokeColor=#d79b00;" vertex="1" parent="1">
          <mxGeometry x="340" y="560" width="80" height="30" as="geometry" />
        </mxCell>
        <mxCell id="qTxGkBUJVbdwnP7Ffih2-213" style="edgeStyle=orthogonalEdgeStyle;rounded=0;orthogonalLoop=1;jettySize=auto;html=1;exitX=0.5;exitY=1;exitDx=0;exitDy=0;entryX=0.5;entryY=0;entryDx=0;entryDy=0;" edge="1" parent="1" source="qTxGkBUJVbdwnP7Ffih2-93" target="qTxGkBUJVbdwnP7Ffih2-206">
          <mxGeometry relative="1" as="geometry" />
        </mxCell>
        <mxCell id="qTxGkBUJVbdwnP7Ffih2-93" value="{id}/" style="rounded=0;whiteSpace=wrap;html=1;fillColor=#f8cecc;strokeColor=#b85450;" vertex="1" parent="1">
          <mxGeometry x="340" y="640" width="80" height="30" as="geometry" />
        </mxCell>
        <mxCell id="qTxGkBUJVbdwnP7Ffih2-214" style="edgeStyle=orthogonalEdgeStyle;rounded=0;orthogonalLoop=1;jettySize=auto;html=1;exitX=0.5;exitY=1;exitDx=0;exitDy=0;entryX=0.5;entryY=0;entryDx=0;entryDy=0;" edge="1" parent="1" source="qTxGkBUJVbdwnP7Ffih2-94" target="qTxGkBUJVbdwnP7Ffih2-207">
          <mxGeometry relative="1" as="geometry" />
        </mxCell>
        <mxCell id="qTxGkBUJVbdwnP7Ffih2-94" value="search/" style="rounded=0;whiteSpace=wrap;html=1;fillColor=#dae8fc;strokeColor=#6c8ebf;" vertex="1" parent="1">
          <mxGeometry x="340" y="720" width="80" height="30" as="geometry" />
        </mxCell>
        <mxCell id="qTxGkBUJVbdwnP7Ffih2-215" style="edgeStyle=orthogonalEdgeStyle;rounded=0;orthogonalLoop=1;jettySize=auto;html=1;exitX=0.12;exitY=1;exitDx=0;exitDy=0;exitPerimeter=0;entryX=0;entryY=0.5;entryDx=0;entryDy=0;" edge="1" parent="1" source="qTxGkBUJVbdwnP7Ffih2-95" target="qTxGkBUJVbdwnP7Ffih2-96">
          <mxGeometry relative="1" as="geometry">
            <Array as="points">
              <mxPoint x="443" y="255" />
            </Array>
          </mxGeometry>
        </mxCell>
        <mxCell id="qTxGkBUJVbdwnP7Ffih2-226" style="edgeStyle=orthogonalEdgeStyle;rounded=0;orthogonalLoop=1;jettySize=auto;html=1;exitX=0.12;exitY=1;exitDx=0;exitDy=0;exitPerimeter=0;entryX=0;entryY=0.5;entryDx=0;entryDy=0;" edge="1" parent="1" source="qTxGkBUJVbdwnP7Ffih2-95" target="qTxGkBUJVbdwnP7Ffih2-97">
          <mxGeometry relative="1" as="geometry">
            <Array as="points">
              <mxPoint x="443" y="335" />
            </Array>
          </mxGeometry>
        </mxCell>
        <mxCell id="qTxGkBUJVbdwnP7Ffih2-227" style="edgeStyle=orthogonalEdgeStyle;rounded=0;orthogonalLoop=1;jettySize=auto;html=1;exitX=0.12;exitY=1;exitDx=0;exitDy=0;exitPerimeter=0;entryX=0;entryY=0.5;entryDx=0;entryDy=0;" edge="1" parent="1" source="qTxGkBUJVbdwnP7Ffih2-95" target="qTxGkBUJVbdwnP7Ffih2-98">
          <mxGeometry relative="1" as="geometry">
            <Array as="points">
              <mxPoint x="443" y="415" />
            </Array>
          </mxGeometry>
        </mxCell>
        <mxCell id="qTxGkBUJVbdwnP7Ffih2-228" style="edgeStyle=orthogonalEdgeStyle;rounded=0;orthogonalLoop=1;jettySize=auto;html=1;exitX=0.12;exitY=1;exitDx=0;exitDy=0;exitPerimeter=0;entryX=0;entryY=0.5;entryDx=0;entryDy=0;" edge="1" parent="1" source="qTxGkBUJVbdwnP7Ffih2-95" target="qTxGkBUJVbdwnP7Ffih2-99">
          <mxGeometry relative="1" as="geometry">
            <Array as="points">
              <mxPoint x="443" y="495" />
            </Array>
          </mxGeometry>
        </mxCell>
        <mxCell id="qTxGkBUJVbdwnP7Ffih2-229" style="edgeStyle=orthogonalEdgeStyle;rounded=0;orthogonalLoop=1;jettySize=auto;html=1;exitX=0.12;exitY=1;exitDx=0;exitDy=0;exitPerimeter=0;entryX=0;entryY=0.5;entryDx=0;entryDy=0;" edge="1" parent="1" source="qTxGkBUJVbdwnP7Ffih2-95" target="qTxGkBUJVbdwnP7Ffih2-100">
          <mxGeometry relative="1" as="geometry">
            <Array as="points">
              <mxPoint x="443" y="575" />
            </Array>
          </mxGeometry>
        </mxCell>
        <mxCell id="qTxGkBUJVbdwnP7Ffih2-230" style="edgeStyle=orthogonalEdgeStyle;rounded=0;orthogonalLoop=1;jettySize=auto;html=1;exitX=0.12;exitY=1;exitDx=0;exitDy=0;exitPerimeter=0;entryX=0;entryY=0.5;entryDx=0;entryDy=0;" edge="1" parent="1" source="qTxGkBUJVbdwnP7Ffih2-95" target="qTxGkBUJVbdwnP7Ffih2-101">
          <mxGeometry relative="1" as="geometry">
            <Array as="points">
              <mxPoint x="443" y="655" />
            </Array>
          </mxGeometry>
        </mxCell>
        <mxCell id="qTxGkBUJVbdwnP7Ffih2-231" style="edgeStyle=orthogonalEdgeStyle;rounded=0;orthogonalLoop=1;jettySize=auto;html=1;exitX=0.12;exitY=1;exitDx=0;exitDy=0;exitPerimeter=0;entryX=0;entryY=0.5;entryDx=0;entryDy=0;" edge="1" parent="1" source="qTxGkBUJVbdwnP7Ffih2-95" target="qTxGkBUJVbdwnP7Ffih2-102">
          <mxGeometry relative="1" as="geometry">
            <Array as="points">
              <mxPoint x="443" y="735" />
            </Array>
          </mxGeometry>
        </mxCell>
        <mxCell id="qTxGkBUJVbdwnP7Ffih2-232" style="edgeStyle=orthogonalEdgeStyle;rounded=0;orthogonalLoop=1;jettySize=auto;html=1;exitX=0.12;exitY=1;exitDx=0;exitDy=0;exitPerimeter=0;entryX=0;entryY=0.5;entryDx=0;entryDy=0;" edge="1" parent="1" source="qTxGkBUJVbdwnP7Ffih2-95" target="qTxGkBUJVbdwnP7Ffih2-104">
          <mxGeometry relative="1" as="geometry">
            <Array as="points">
              <mxPoint x="443" y="895" />
            </Array>
          </mxGeometry>
        </mxCell>
        <mxCell id="qTxGkBUJVbdwnP7Ffih2-233" style="edgeStyle=orthogonalEdgeStyle;rounded=0;orthogonalLoop=1;jettySize=auto;html=1;exitX=0.12;exitY=1;exitDx=0;exitDy=0;exitPerimeter=0;entryX=0;entryY=0.5;entryDx=0;entryDy=0;" edge="1" parent="1" source="qTxGkBUJVbdwnP7Ffih2-95" target="qTxGkBUJVbdwnP7Ffih2-103">
          <mxGeometry relative="1" as="geometry">
            <Array as="points">
              <mxPoint x="443" y="815" />
            </Array>
          </mxGeometry>
        </mxCell>
        <mxCell id="qTxGkBUJVbdwnP7Ffih2-95" value="oirderitems/" style="rounded=0;whiteSpace=wrap;html=1;points=[[0,0,0,0,0],[0,0.25,0,0,0],[0,0.5,0,0,0],[0,0.75,0,0,0],[0,1,0,0,0],[0.12,1,0,0,0],[0.25,0,0,0,0],[0.5,0,0,0,0],[0.5,1,0,0,0],[0.75,0,0,0,0],[0.75,1,0,0,0],[1,0,0,0,0],[1,0.25,0,0,0],[1,0.5,0,0,0],[1,0.75,0,0,0],[1,1,0,0,0]];fillColor=#bac8d3;strokeColor=#23445d;" vertex="1" parent="1">
          <mxGeometry x="430" y="200" width="110" height="30" as="geometry" />
        </mxCell>
        <mxCell id="qTxGkBUJVbdwnP7Ffih2-279" style="edgeStyle=orthogonalEdgeStyle;rounded=0;orthogonalLoop=1;jettySize=auto;html=1;exitX=0.5;exitY=1;exitDx=0;exitDy=0;entryX=0.5;entryY=0;entryDx=0;entryDy=0;" edge="1" parent="1" source="qTxGkBUJVbdwnP7Ffih2-96" target="qTxGkBUJVbdwnP7Ffih2-217">
          <mxGeometry relative="1" as="geometry" />
        </mxCell>
        <mxCell id="qTxGkBUJVbdwnP7Ffih2-96" value="{id}/" style="rounded=0;whiteSpace=wrap;html=1;fillColor=#dae8fc;strokeColor=#6c8ebf;" vertex="1" parent="1">
          <mxGeometry x="460" y="240" width="80" height="30" as="geometry" />
        </mxCell>
        <mxCell id="qTxGkBUJVbdwnP7Ffih2-280" style="edgeStyle=orthogonalEdgeStyle;rounded=0;orthogonalLoop=1;jettySize=auto;html=1;exitX=0.5;exitY=1;exitDx=0;exitDy=0;entryX=0.5;entryY=0;entryDx=0;entryDy=0;" edge="1" parent="1" source="qTxGkBUJVbdwnP7Ffih2-97" target="qTxGkBUJVbdwnP7Ffih2-218">
          <mxGeometry relative="1" as="geometry" />
        </mxCell>
        <mxCell id="qTxGkBUJVbdwnP7Ffih2-97" value="" style="rounded=0;whiteSpace=wrap;html=1;fillColor=#dae8fc;strokeColor=#6c8ebf;" vertex="1" parent="1">
          <mxGeometry x="460" y="320" width="80" height="30" as="geometry" />
        </mxCell>
        <mxCell id="qTxGkBUJVbdwnP7Ffih2-281" style="edgeStyle=orthogonalEdgeStyle;rounded=0;orthogonalLoop=1;jettySize=auto;html=1;exitX=0.5;exitY=1;exitDx=0;exitDy=0;entryX=0.5;entryY=0;entryDx=0;entryDy=0;" edge="1" parent="1" source="qTxGkBUJVbdwnP7Ffih2-98" target="qTxGkBUJVbdwnP7Ffih2-219">
          <mxGeometry relative="1" as="geometry" />
        </mxCell>
        <mxCell id="qTxGkBUJVbdwnP7Ffih2-98" value="" style="rounded=0;whiteSpace=wrap;html=1;fillColor=#d5e8d4;strokeColor=#82b366;" vertex="1" parent="1">
          <mxGeometry x="460" y="400" width="80" height="30" as="geometry" />
        </mxCell>
        <mxCell id="qTxGkBUJVbdwnP7Ffih2-282" style="edgeStyle=orthogonalEdgeStyle;rounded=0;orthogonalLoop=1;jettySize=auto;html=1;exitX=0.5;exitY=1;exitDx=0;exitDy=0;entryX=0.5;entryY=0;entryDx=0;entryDy=0;" edge="1" parent="1" source="qTxGkBUJVbdwnP7Ffih2-99" target="qTxGkBUJVbdwnP7Ffih2-220">
          <mxGeometry relative="1" as="geometry" />
        </mxCell>
        <mxCell id="qTxGkBUJVbdwnP7Ffih2-99" value="{id}/" style="rounded=0;whiteSpace=wrap;html=1;fillColor=#e1d5e7;strokeColor=#9673a6;" vertex="1" parent="1">
          <mxGeometry x="460" y="480" width="80" height="30" as="geometry" />
        </mxCell>
        <mxCell id="qTxGkBUJVbdwnP7Ffih2-283" style="edgeStyle=orthogonalEdgeStyle;rounded=0;orthogonalLoop=1;jettySize=auto;html=1;exitX=0.5;exitY=1;exitDx=0;exitDy=0;entryX=0.5;entryY=0;entryDx=0;entryDy=0;" edge="1" parent="1" source="qTxGkBUJVbdwnP7Ffih2-100" target="qTxGkBUJVbdwnP7Ffih2-221">
          <mxGeometry relative="1" as="geometry" />
        </mxCell>
        <mxCell id="qTxGkBUJVbdwnP7Ffih2-100" value="{id}/" style="rounded=0;whiteSpace=wrap;html=1;fillColor=#ffe6cc;strokeColor=#d79b00;" vertex="1" parent="1">
          <mxGeometry x="460" y="560" width="80" height="30" as="geometry" />
        </mxCell>
        <mxCell id="qTxGkBUJVbdwnP7Ffih2-284" style="edgeStyle=orthogonalEdgeStyle;rounded=0;orthogonalLoop=1;jettySize=auto;html=1;exitX=0.5;exitY=1;exitDx=0;exitDy=0;entryX=0.5;entryY=0;entryDx=0;entryDy=0;" edge="1" parent="1" source="qTxGkBUJVbdwnP7Ffih2-101" target="qTxGkBUJVbdwnP7Ffih2-222">
          <mxGeometry relative="1" as="geometry" />
        </mxCell>
        <mxCell id="qTxGkBUJVbdwnP7Ffih2-101" value="{id}/" style="rounded=0;whiteSpace=wrap;html=1;fillColor=#f8cecc;strokeColor=#b85450;" vertex="1" parent="1">
          <mxGeometry x="460" y="640" width="80" height="30" as="geometry" />
        </mxCell>
        <mxCell id="qTxGkBUJVbdwnP7Ffih2-285" style="edgeStyle=orthogonalEdgeStyle;rounded=0;orthogonalLoop=1;jettySize=auto;html=1;exitX=0.5;exitY=1;exitDx=0;exitDy=0;entryX=0.5;entryY=0;entryDx=0;entryDy=0;" edge="1" parent="1" source="qTxGkBUJVbdwnP7Ffih2-102" target="qTxGkBUJVbdwnP7Ffih2-223">
          <mxGeometry relative="1" as="geometry" />
        </mxCell>
        <mxCell id="qTxGkBUJVbdwnP7Ffih2-102" value="bulk-update/" style="rounded=0;whiteSpace=wrap;html=1;fillColor=#ffe6cc;strokeColor=#d79b00;" vertex="1" parent="1">
          <mxGeometry x="460" y="720" width="80" height="30" as="geometry" />
        </mxCell>
        <mxCell id="qTxGkBUJVbdwnP7Ffih2-286" style="edgeStyle=orthogonalEdgeStyle;rounded=0;orthogonalLoop=1;jettySize=auto;html=1;exitX=0.5;exitY=1;exitDx=0;exitDy=0;entryX=0.5;entryY=0;entryDx=0;entryDy=0;" edge="1" parent="1" source="qTxGkBUJVbdwnP7Ffih2-103" target="qTxGkBUJVbdwnP7Ffih2-224">
          <mxGeometry relative="1" as="geometry" />
        </mxCell>
        <mxCell id="qTxGkBUJVbdwnP7Ffih2-103" value="bulk-delete/" style="rounded=0;whiteSpace=wrap;html=1;fillColor=#f8cecc;strokeColor=#b85450;" vertex="1" parent="1">
          <mxGeometry x="460" y="800" width="80" height="30" as="geometry" />
        </mxCell>
        <mxCell id="qTxGkBUJVbdwnP7Ffih2-287" style="edgeStyle=orthogonalEdgeStyle;rounded=0;orthogonalLoop=1;jettySize=auto;html=1;exitX=0.5;exitY=1;exitDx=0;exitDy=0;entryX=0.5;entryY=0;entryDx=0;entryDy=0;" edge="1" parent="1" source="qTxGkBUJVbdwnP7Ffih2-104" target="qTxGkBUJVbdwnP7Ffih2-225">
          <mxGeometry relative="1" as="geometry" />
        </mxCell>
        <mxCell id="qTxGkBUJVbdwnP7Ffih2-104" value="bulk-create/" style="rounded=0;whiteSpace=wrap;html=1;fillColor=#d5e8d4;strokeColor=#82b366;" vertex="1" parent="1">
          <mxGeometry x="460" y="880" width="80" height="30" as="geometry" />
        </mxCell>
        <mxCell id="qTxGkBUJVbdwnP7Ffih2-105" value="products/" style="rounded=0;whiteSpace=wrap;html=1;fillColor=#b1ddf0;strokeColor=#10739e;" vertex="1" parent="1">
          <mxGeometry x="550" y="160" width="350" height="30" as="geometry" />
        </mxCell>
        <mxCell id="qTxGkBUJVbdwnP7Ffih2-256" style="edgeStyle=orthogonalEdgeStyle;rounded=0;orthogonalLoop=1;jettySize=auto;html=1;exitX=0.12;exitY=1;exitDx=0;exitDy=0;exitPerimeter=0;entryX=0;entryY=0.5;entryDx=0;entryDy=0;" edge="1" parent="1" source="qTxGkBUJVbdwnP7Ffih2-106" target="qTxGkBUJVbdwnP7Ffih2-107">
          <mxGeometry relative="1" as="geometry">
            <Array as="points">
              <mxPoint x="563" y="255" />
            </Array>
          </mxGeometry>
        </mxCell>
        <mxCell id="qTxGkBUJVbdwnP7Ffih2-257" style="edgeStyle=orthogonalEdgeStyle;rounded=0;orthogonalLoop=1;jettySize=auto;html=1;exitX=0.12;exitY=1;exitDx=0;exitDy=0;exitPerimeter=0;entryX=0;entryY=0.5;entryDx=0;entryDy=0;" edge="1" parent="1" source="qTxGkBUJVbdwnP7Ffih2-106" target="qTxGkBUJVbdwnP7Ffih2-108">
          <mxGeometry relative="1" as="geometry">
            <Array as="points">
              <mxPoint x="563" y="335" />
            </Array>
          </mxGeometry>
        </mxCell>
        <mxCell id="qTxGkBUJVbdwnP7Ffih2-258" style="edgeStyle=orthogonalEdgeStyle;rounded=0;orthogonalLoop=1;jettySize=auto;html=1;exitX=0.12;exitY=1;exitDx=0;exitDy=0;exitPerimeter=0;entryX=0;entryY=0.5;entryDx=0;entryDy=0;" edge="1" parent="1" source="qTxGkBUJVbdwnP7Ffih2-106" target="qTxGkBUJVbdwnP7Ffih2-109">
          <mxGeometry relative="1" as="geometry">
            <Array as="points">
              <mxPoint x="563" y="415" />
            </Array>
          </mxGeometry>
        </mxCell>
        <mxCell id="qTxGkBUJVbdwnP7Ffih2-259" style="edgeStyle=orthogonalEdgeStyle;rounded=0;orthogonalLoop=1;jettySize=auto;html=1;exitX=0.12;exitY=1;exitDx=0;exitDy=0;exitPerimeter=0;entryX=0;entryY=0.5;entryDx=0;entryDy=0;" edge="1" parent="1" source="qTxGkBUJVbdwnP7Ffih2-106" target="qTxGkBUJVbdwnP7Ffih2-110">
          <mxGeometry relative="1" as="geometry">
            <Array as="points">
              <mxPoint x="563" y="495" />
            </Array>
          </mxGeometry>
        </mxCell>
        <mxCell id="qTxGkBUJVbdwnP7Ffih2-260" style="edgeStyle=orthogonalEdgeStyle;rounded=0;orthogonalLoop=1;jettySize=auto;html=1;exitX=0.12;exitY=1;exitDx=0;exitDy=0;exitPerimeter=0;entryX=0;entryY=0.5;entryDx=0;entryDy=0;" edge="1" parent="1" source="qTxGkBUJVbdwnP7Ffih2-106" target="qTxGkBUJVbdwnP7Ffih2-111">
          <mxGeometry relative="1" as="geometry">
            <Array as="points">
              <mxPoint x="563" y="575" />
            </Array>
          </mxGeometry>
        </mxCell>
        <mxCell id="qTxGkBUJVbdwnP7Ffih2-261" style="edgeStyle=orthogonalEdgeStyle;rounded=0;orthogonalLoop=1;jettySize=auto;html=1;exitX=0.12;exitY=1;exitDx=0;exitDy=0;exitPerimeter=0;entryX=0;entryY=0.5;entryDx=0;entryDy=0;" edge="1" parent="1" source="qTxGkBUJVbdwnP7Ffih2-106" target="qTxGkBUJVbdwnP7Ffih2-112">
          <mxGeometry relative="1" as="geometry">
            <Array as="points">
              <mxPoint x="563" y="655" />
            </Array>
          </mxGeometry>
        </mxCell>
        <mxCell id="qTxGkBUJVbdwnP7Ffih2-262" style="edgeStyle=orthogonalEdgeStyle;rounded=0;orthogonalLoop=1;jettySize=auto;html=1;exitX=0.12;exitY=1;exitDx=0;exitDy=0;exitPerimeter=0;entryX=0;entryY=0.5;entryDx=0;entryDy=0;" edge="1" parent="1" source="qTxGkBUJVbdwnP7Ffih2-106" target="qTxGkBUJVbdwnP7Ffih2-113">
          <mxGeometry relative="1" as="geometry">
            <Array as="points">
              <mxPoint x="563" y="735" />
            </Array>
          </mxGeometry>
        </mxCell>
        <mxCell id="qTxGkBUJVbdwnP7Ffih2-263" style="edgeStyle=orthogonalEdgeStyle;rounded=0;orthogonalLoop=1;jettySize=auto;html=1;exitX=0.12;exitY=1;exitDx=0;exitDy=0;exitPerimeter=0;entryX=0;entryY=0.5;entryDx=0;entryDy=0;" edge="1" parent="1" source="qTxGkBUJVbdwnP7Ffih2-106" target="qTxGkBUJVbdwnP7Ffih2-114">
          <mxGeometry relative="1" as="geometry">
            <Array as="points">
              <mxPoint x="563" y="815" />
            </Array>
          </mxGeometry>
        </mxCell>
        <mxCell id="qTxGkBUJVbdwnP7Ffih2-106" value="products/" style="rounded=0;whiteSpace=wrap;html=1;points=[[0,0,0,0,0],[0,0.25,0,0,0],[0,0.5,0,0,0],[0,0.75,0,0,0],[0,1,0,0,0],[0.12,1,0,0,0],[0.25,0,0,0,0],[0.5,0,0,0,0],[0.5,1,0,0,0],[0.75,0,0,0,0],[0.75,1,0,0,0],[1,0,0,0,0],[1,0.25,0,0,0],[1,0.5,0,0,0],[1,0.75,0,0,0],[1,1,0,0,0]];fillColor=#bac8d3;strokeColor=#23445d;" vertex="1" parent="1">
          <mxGeometry x="550" y="200" width="110" height="30" as="geometry" />
        </mxCell>
        <mxCell id="qTxGkBUJVbdwnP7Ffih2-288" style="edgeStyle=orthogonalEdgeStyle;rounded=0;orthogonalLoop=1;jettySize=auto;html=1;exitX=0.5;exitY=1;exitDx=0;exitDy=0;entryX=0.5;entryY=0;entryDx=0;entryDy=0;" edge="1" parent="1" source="qTxGkBUJVbdwnP7Ffih2-107" target="qTxGkBUJVbdwnP7Ffih2-234">
          <mxGeometry relative="1" as="geometry" />
        </mxCell>
        <mxCell id="qTxGkBUJVbdwnP7Ffih2-107" value="{id}/" style="rounded=0;whiteSpace=wrap;html=1;fillColor=#dae8fc;strokeColor=#6c8ebf;" vertex="1" parent="1">
          <mxGeometry x="580" y="240" width="80" height="30" as="geometry" />
        </mxCell>
        <mxCell id="qTxGkBUJVbdwnP7Ffih2-289" style="edgeStyle=orthogonalEdgeStyle;rounded=0;orthogonalLoop=1;jettySize=auto;html=1;exitX=0.5;exitY=1;exitDx=0;exitDy=0;entryX=0.5;entryY=0;entryDx=0;entryDy=0;" edge="1" parent="1" source="qTxGkBUJVbdwnP7Ffih2-108" target="qTxGkBUJVbdwnP7Ffih2-235">
          <mxGeometry relative="1" as="geometry" />
        </mxCell>
        <mxCell id="qTxGkBUJVbdwnP7Ffih2-108" value="" style="rounded=0;whiteSpace=wrap;html=1;fillColor=#dae8fc;strokeColor=#6c8ebf;" vertex="1" parent="1">
          <mxGeometry x="580" y="320" width="80" height="30" as="geometry" />
        </mxCell>
        <mxCell id="qTxGkBUJVbdwnP7Ffih2-290" style="edgeStyle=orthogonalEdgeStyle;rounded=0;orthogonalLoop=1;jettySize=auto;html=1;exitX=0.5;exitY=1;exitDx=0;exitDy=0;entryX=0.5;entryY=0;entryDx=0;entryDy=0;" edge="1" parent="1" source="qTxGkBUJVbdwnP7Ffih2-109" target="qTxGkBUJVbdwnP7Ffih2-236">
          <mxGeometry relative="1" as="geometry" />
        </mxCell>
        <mxCell id="qTxGkBUJVbdwnP7Ffih2-109" value="" style="rounded=0;whiteSpace=wrap;html=1;fillColor=#d5e8d4;strokeColor=#82b366;" vertex="1" parent="1">
          <mxGeometry x="580" y="400" width="80" height="30" as="geometry" />
        </mxCell>
        <mxCell id="qTxGkBUJVbdwnP7Ffih2-291" style="edgeStyle=orthogonalEdgeStyle;rounded=0;orthogonalLoop=1;jettySize=auto;html=1;exitX=0.5;exitY=1;exitDx=0;exitDy=0;entryX=0.5;entryY=0;entryDx=0;entryDy=0;" edge="1" parent="1" source="qTxGkBUJVbdwnP7Ffih2-110" target="qTxGkBUJVbdwnP7Ffih2-237">
          <mxGeometry relative="1" as="geometry" />
        </mxCell>
        <mxCell id="qTxGkBUJVbdwnP7Ffih2-110" value="{id}/" style="rounded=0;whiteSpace=wrap;html=1;fillColor=#e1d5e7;strokeColor=#9673a6;" vertex="1" parent="1">
          <mxGeometry x="580" y="480" width="80" height="30" as="geometry" />
        </mxCell>
        <mxCell id="qTxGkBUJVbdwnP7Ffih2-292" style="edgeStyle=orthogonalEdgeStyle;rounded=0;orthogonalLoop=1;jettySize=auto;html=1;exitX=0.5;exitY=1;exitDx=0;exitDy=0;entryX=0.5;entryY=0;entryDx=0;entryDy=0;" edge="1" parent="1" source="qTxGkBUJVbdwnP7Ffih2-111" target="qTxGkBUJVbdwnP7Ffih2-238">
          <mxGeometry relative="1" as="geometry" />
        </mxCell>
        <mxCell id="qTxGkBUJVbdwnP7Ffih2-111" value="{id}/" style="rounded=0;whiteSpace=wrap;html=1;fillColor=#ffe6cc;strokeColor=#d79b00;" vertex="1" parent="1">
          <mxGeometry x="580" y="560" width="80" height="30" as="geometry" />
        </mxCell>
        <mxCell id="qTxGkBUJVbdwnP7Ffih2-293" style="edgeStyle=orthogonalEdgeStyle;rounded=0;orthogonalLoop=1;jettySize=auto;html=1;exitX=0.5;exitY=1;exitDx=0;exitDy=0;entryX=0.5;entryY=0;entryDx=0;entryDy=0;" edge="1" parent="1" source="qTxGkBUJVbdwnP7Ffih2-112" target="qTxGkBUJVbdwnP7Ffih2-239">
          <mxGeometry relative="1" as="geometry" />
        </mxCell>
        <mxCell id="qTxGkBUJVbdwnP7Ffih2-112" value="{id}/" style="rounded=0;whiteSpace=wrap;html=1;fillColor=#f8cecc;strokeColor=#b85450;" vertex="1" parent="1">
          <mxGeometry x="580" y="640" width="80" height="30" as="geometry" />
        </mxCell>
        <mxCell id="qTxGkBUJVbdwnP7Ffih2-294" style="edgeStyle=orthogonalEdgeStyle;rounded=0;orthogonalLoop=1;jettySize=auto;html=1;exitX=0.5;exitY=1;exitDx=0;exitDy=0;entryX=0.5;entryY=0;entryDx=0;entryDy=0;" edge="1" parent="1" source="qTxGkBUJVbdwnP7Ffih2-113" target="qTxGkBUJVbdwnP7Ffih2-240">
          <mxGeometry relative="1" as="geometry" />
        </mxCell>
        <mxCell id="qTxGkBUJVbdwnP7Ffih2-113" value="paginated/" style="rounded=0;whiteSpace=wrap;html=1;fillColor=#dae8fc;strokeColor=#6c8ebf;" vertex="1" parent="1">
          <mxGeometry x="580" y="720" width="80" height="30" as="geometry" />
        </mxCell>
        <mxCell id="qTxGkBUJVbdwnP7Ffih2-295" style="edgeStyle=orthogonalEdgeStyle;rounded=0;orthogonalLoop=1;jettySize=auto;html=1;exitX=0.5;exitY=1;exitDx=0;exitDy=0;entryX=0.5;entryY=0;entryDx=0;entryDy=0;" edge="1" parent="1" source="qTxGkBUJVbdwnP7Ffih2-114" target="qTxGkBUJVbdwnP7Ffih2-241">
          <mxGeometry relative="1" as="geometry" />
        </mxCell>
        <mxCell id="qTxGkBUJVbdwnP7Ffih2-114" value="detail/" style="rounded=0;whiteSpace=wrap;html=1;fillColor=#dae8fc;strokeColor=#6c8ebf;" vertex="1" parent="1">
          <mxGeometry x="580" y="800" width="80" height="30" as="geometry" />
        </mxCell>
        <mxCell id="qTxGkBUJVbdwnP7Ffih2-264" style="edgeStyle=orthogonalEdgeStyle;rounded=0;orthogonalLoop=1;jettySize=auto;html=1;exitX=0.12;exitY=1;exitDx=0;exitDy=0;exitPerimeter=0;entryX=0;entryY=0.5;entryDx=0;entryDy=0;" edge="1" parent="1" source="qTxGkBUJVbdwnP7Ffih2-117" target="qTxGkBUJVbdwnP7Ffih2-118">
          <mxGeometry relative="1" as="geometry">
            <Array as="points">
              <mxPoint x="683" y="255" />
            </Array>
          </mxGeometry>
        </mxCell>
        <mxCell id="qTxGkBUJVbdwnP7Ffih2-265" style="edgeStyle=orthogonalEdgeStyle;rounded=0;orthogonalLoop=1;jettySize=auto;html=1;exitX=0.12;exitY=1;exitDx=0;exitDy=0;exitPerimeter=0;entryX=0;entryY=0.5;entryDx=0;entryDy=0;" edge="1" parent="1" source="qTxGkBUJVbdwnP7Ffih2-117" target="qTxGkBUJVbdwnP7Ffih2-119">
          <mxGeometry relative="1" as="geometry">
            <Array as="points">
              <mxPoint x="683" y="335" />
            </Array>
          </mxGeometry>
        </mxCell>
        <mxCell id="qTxGkBUJVbdwnP7Ffih2-266" style="edgeStyle=orthogonalEdgeStyle;rounded=0;orthogonalLoop=1;jettySize=auto;html=1;exitX=0.12;exitY=1;exitDx=0;exitDy=0;exitPerimeter=0;entryX=0;entryY=0.5;entryDx=0;entryDy=0;" edge="1" parent="1" source="qTxGkBUJVbdwnP7Ffih2-117" target="qTxGkBUJVbdwnP7Ffih2-120">
          <mxGeometry relative="1" as="geometry">
            <Array as="points">
              <mxPoint x="683" y="415" />
            </Array>
          </mxGeometry>
        </mxCell>
        <mxCell id="qTxGkBUJVbdwnP7Ffih2-267" style="edgeStyle=orthogonalEdgeStyle;rounded=0;orthogonalLoop=1;jettySize=auto;html=1;exitX=0.12;exitY=1;exitDx=0;exitDy=0;exitPerimeter=0;entryX=0;entryY=0.5;entryDx=0;entryDy=0;" edge="1" parent="1" source="qTxGkBUJVbdwnP7Ffih2-117" target="qTxGkBUJVbdwnP7Ffih2-121">
          <mxGeometry relative="1" as="geometry">
            <Array as="points">
              <mxPoint x="683" y="495" />
            </Array>
          </mxGeometry>
        </mxCell>
        <mxCell id="qTxGkBUJVbdwnP7Ffih2-268" style="edgeStyle=orthogonalEdgeStyle;rounded=0;orthogonalLoop=1;jettySize=auto;html=1;exitX=0.12;exitY=1;exitDx=0;exitDy=0;exitPerimeter=0;entryX=0;entryY=0.5;entryDx=0;entryDy=0;" edge="1" parent="1" source="qTxGkBUJVbdwnP7Ffih2-117" target="qTxGkBUJVbdwnP7Ffih2-122">
          <mxGeometry relative="1" as="geometry">
            <Array as="points">
              <mxPoint x="683" y="575" />
            </Array>
          </mxGeometry>
        </mxCell>
        <mxCell id="qTxGkBUJVbdwnP7Ffih2-269" style="edgeStyle=orthogonalEdgeStyle;rounded=0;orthogonalLoop=1;jettySize=auto;html=1;exitX=0.12;exitY=1;exitDx=0;exitDy=0;exitPerimeter=0;entryX=0;entryY=0.5;entryDx=0;entryDy=0;" edge="1" parent="1" source="qTxGkBUJVbdwnP7Ffih2-117" target="qTxGkBUJVbdwnP7Ffih2-123">
          <mxGeometry relative="1" as="geometry">
            <Array as="points">
              <mxPoint x="683" y="655" />
            </Array>
          </mxGeometry>
        </mxCell>
        <mxCell id="qTxGkBUJVbdwnP7Ffih2-270" style="edgeStyle=orthogonalEdgeStyle;rounded=0;orthogonalLoop=1;jettySize=auto;html=1;exitX=0.12;exitY=1;exitDx=0;exitDy=0;exitPerimeter=0;entryX=0;entryY=0.5;entryDx=0;entryDy=0;" edge="1" parent="1" source="qTxGkBUJVbdwnP7Ffih2-117" target="qTxGkBUJVbdwnP7Ffih2-124">
          <mxGeometry relative="1" as="geometry">
            <Array as="points">
              <mxPoint x="683" y="735" />
            </Array>
          </mxGeometry>
        </mxCell>
        <mxCell id="qTxGkBUJVbdwnP7Ffih2-117" value="marketplace-products/" style="rounded=0;whiteSpace=wrap;html=1;points=[[0,0,0,0,0],[0,0.25,0,0,0],[0,0.5,0,0,0],[0,0.75,0,0,0],[0,1,0,0,0],[0.12,1,0,0,0],[0.25,0,0,0,0],[0.5,0,0,0,0],[0.5,1,0,0,0],[0.75,0,0,0,0],[0.75,1,0,0,0],[1,0,0,0,0],[1,0.25,0,0,0],[1,0.5,0,0,0],[1,0.75,0,0,0],[1,1,0,0,0]];fillColor=#bac8d3;strokeColor=#23445d;" vertex="1" parent="1">
          <mxGeometry x="670" y="200" width="110" height="30" as="geometry" />
        </mxCell>
        <mxCell id="qTxGkBUJVbdwnP7Ffih2-296" style="edgeStyle=orthogonalEdgeStyle;rounded=0;orthogonalLoop=1;jettySize=auto;html=1;exitX=0.5;exitY=1;exitDx=0;exitDy=0;entryX=0.5;entryY=0;entryDx=0;entryDy=0;" edge="1" parent="1" source="qTxGkBUJVbdwnP7Ffih2-118" target="qTxGkBUJVbdwnP7Ffih2-242">
          <mxGeometry relative="1" as="geometry" />
        </mxCell>
        <mxCell id="qTxGkBUJVbdwnP7Ffih2-118" value="{id}/" style="rounded=0;whiteSpace=wrap;html=1;fillColor=#dae8fc;strokeColor=#6c8ebf;" vertex="1" parent="1">
          <mxGeometry x="700" y="240" width="80" height="30" as="geometry" />
        </mxCell>
        <mxCell id="qTxGkBUJVbdwnP7Ffih2-297" style="edgeStyle=orthogonalEdgeStyle;rounded=0;orthogonalLoop=1;jettySize=auto;html=1;exitX=0.5;exitY=1;exitDx=0;exitDy=0;entryX=0.5;entryY=0;entryDx=0;entryDy=0;" edge="1" parent="1" source="qTxGkBUJVbdwnP7Ffih2-119" target="qTxGkBUJVbdwnP7Ffih2-243">
          <mxGeometry relative="1" as="geometry" />
        </mxCell>
        <mxCell id="qTxGkBUJVbdwnP7Ffih2-119" value="" style="rounded=0;whiteSpace=wrap;html=1;fillColor=#dae8fc;strokeColor=#6c8ebf;" vertex="1" parent="1">
          <mxGeometry x="700" y="320" width="80" height="30" as="geometry" />
        </mxCell>
        <mxCell id="qTxGkBUJVbdwnP7Ffih2-298" style="edgeStyle=orthogonalEdgeStyle;rounded=0;orthogonalLoop=1;jettySize=auto;html=1;exitX=0.5;exitY=1;exitDx=0;exitDy=0;entryX=0.5;entryY=0;entryDx=0;entryDy=0;" edge="1" parent="1" source="qTxGkBUJVbdwnP7Ffih2-120" target="qTxGkBUJVbdwnP7Ffih2-244">
          <mxGeometry relative="1" as="geometry" />
        </mxCell>
        <mxCell id="qTxGkBUJVbdwnP7Ffih2-120" value="" style="rounded=0;whiteSpace=wrap;html=1;fillColor=#d5e8d4;strokeColor=#82b366;" vertex="1" parent="1">
          <mxGeometry x="700" y="400" width="80" height="30" as="geometry" />
        </mxCell>
        <mxCell id="qTxGkBUJVbdwnP7Ffih2-299" style="edgeStyle=orthogonalEdgeStyle;rounded=0;orthogonalLoop=1;jettySize=auto;html=1;exitX=0.5;exitY=1;exitDx=0;exitDy=0;entryX=0.5;entryY=0;entryDx=0;entryDy=0;" edge="1" parent="1" source="qTxGkBUJVbdwnP7Ffih2-121" target="qTxGkBUJVbdwnP7Ffih2-245">
          <mxGeometry relative="1" as="geometry" />
        </mxCell>
        <mxCell id="qTxGkBUJVbdwnP7Ffih2-121" value="{id}/" style="rounded=0;whiteSpace=wrap;html=1;fillColor=#e1d5e7;strokeColor=#9673a6;" vertex="1" parent="1">
          <mxGeometry x="700" y="480" width="80" height="30" as="geometry" />
        </mxCell>
        <mxCell id="qTxGkBUJVbdwnP7Ffih2-300" style="edgeStyle=orthogonalEdgeStyle;rounded=0;orthogonalLoop=1;jettySize=auto;html=1;exitX=0.5;exitY=1;exitDx=0;exitDy=0;entryX=0.5;entryY=0;entryDx=0;entryDy=0;" edge="1" parent="1" source="qTxGkBUJVbdwnP7Ffih2-122" target="qTxGkBUJVbdwnP7Ffih2-246">
          <mxGeometry relative="1" as="geometry" />
        </mxCell>
        <mxCell id="qTxGkBUJVbdwnP7Ffih2-122" value="{id}/" style="rounded=0;whiteSpace=wrap;html=1;fillColor=#ffe6cc;strokeColor=#d79b00;" vertex="1" parent="1">
          <mxGeometry x="700" y="560" width="80" height="30" as="geometry" />
        </mxCell>
        <mxCell id="qTxGkBUJVbdwnP7Ffih2-301" style="edgeStyle=orthogonalEdgeStyle;rounded=0;orthogonalLoop=1;jettySize=auto;html=1;exitX=0.5;exitY=1;exitDx=0;exitDy=0;entryX=0.5;entryY=0;entryDx=0;entryDy=0;" edge="1" parent="1" source="qTxGkBUJVbdwnP7Ffih2-123" target="qTxGkBUJVbdwnP7Ffih2-247">
          <mxGeometry relative="1" as="geometry" />
        </mxCell>
        <mxCell id="qTxGkBUJVbdwnP7Ffih2-123" value="{id}/" style="rounded=0;whiteSpace=wrap;html=1;fillColor=#f8cecc;strokeColor=#b85450;" vertex="1" parent="1">
          <mxGeometry x="700" y="640" width="80" height="30" as="geometry" />
        </mxCell>
        <mxCell id="qTxGkBUJVbdwnP7Ffih2-302" style="edgeStyle=orthogonalEdgeStyle;rounded=0;orthogonalLoop=1;jettySize=auto;html=1;exitX=0.5;exitY=1;exitDx=0;exitDy=0;entryX=0.5;entryY=0;entryDx=0;entryDy=0;" edge="1" parent="1" source="qTxGkBUJVbdwnP7Ffih2-124" target="qTxGkBUJVbdwnP7Ffih2-248">
          <mxGeometry relative="1" as="geometry" />
        </mxCell>
        <mxCell id="qTxGkBUJVbdwnP7Ffih2-124" value="products-chart/" style="rounded=0;whiteSpace=wrap;html=1;fillColor=#d5e8d4;strokeColor=#82b366;" vertex="1" parent="1">
          <mxGeometry x="700" y="720" width="80" height="30" as="geometry" />
        </mxCell>
        <mxCell id="qTxGkBUJVbdwnP7Ffih2-272" style="edgeStyle=orthogonalEdgeStyle;rounded=0;orthogonalLoop=1;jettySize=auto;html=1;exitX=0.12;exitY=1;exitDx=0;exitDy=0;exitPerimeter=0;entryX=0;entryY=0.5;entryDx=0;entryDy=0;" edge="1" parent="1" source="qTxGkBUJVbdwnP7Ffih2-125" target="qTxGkBUJVbdwnP7Ffih2-126">
          <mxGeometry relative="1" as="geometry">
            <Array as="points">
              <mxPoint x="803" y="255" />
            </Array>
          </mxGeometry>
        </mxCell>
        <mxCell id="qTxGkBUJVbdwnP7Ffih2-273" style="edgeStyle=orthogonalEdgeStyle;rounded=0;orthogonalLoop=1;jettySize=auto;html=1;exitX=0.12;exitY=1;exitDx=0;exitDy=0;exitPerimeter=0;entryX=0;entryY=0.5;entryDx=0;entryDy=0;" edge="1" parent="1" source="qTxGkBUJVbdwnP7Ffih2-125" target="qTxGkBUJVbdwnP7Ffih2-127">
          <mxGeometry relative="1" as="geometry">
            <Array as="points">
              <mxPoint x="803" y="335" />
            </Array>
          </mxGeometry>
        </mxCell>
        <mxCell id="qTxGkBUJVbdwnP7Ffih2-274" style="edgeStyle=orthogonalEdgeStyle;rounded=0;orthogonalLoop=1;jettySize=auto;html=1;exitX=0.12;exitY=1;exitDx=0;exitDy=0;exitPerimeter=0;entryX=0;entryY=0.5;entryDx=0;entryDy=0;" edge="1" parent="1" source="qTxGkBUJVbdwnP7Ffih2-125" target="qTxGkBUJVbdwnP7Ffih2-128">
          <mxGeometry relative="1" as="geometry">
            <Array as="points">
              <mxPoint x="803" y="415" />
            </Array>
          </mxGeometry>
        </mxCell>
        <mxCell id="qTxGkBUJVbdwnP7Ffih2-275" style="edgeStyle=orthogonalEdgeStyle;rounded=0;orthogonalLoop=1;jettySize=auto;html=1;exitX=0.12;exitY=1;exitDx=0;exitDy=0;exitPerimeter=0;entryX=0;entryY=0.5;entryDx=0;entryDy=0;" edge="1" parent="1" source="qTxGkBUJVbdwnP7Ffih2-125" target="qTxGkBUJVbdwnP7Ffih2-129">
          <mxGeometry relative="1" as="geometry">
            <Array as="points">
              <mxPoint x="803" y="495" />
            </Array>
          </mxGeometry>
        </mxCell>
        <mxCell id="qTxGkBUJVbdwnP7Ffih2-276" style="edgeStyle=orthogonalEdgeStyle;rounded=0;orthogonalLoop=1;jettySize=auto;html=1;exitX=0.12;exitY=1;exitDx=0;exitDy=0;exitPerimeter=0;entryX=0;entryY=0.5;entryDx=0;entryDy=0;" edge="1" parent="1" source="qTxGkBUJVbdwnP7Ffih2-125" target="qTxGkBUJVbdwnP7Ffih2-130">
          <mxGeometry relative="1" as="geometry">
            <Array as="points">
              <mxPoint x="803" y="575" />
            </Array>
          </mxGeometry>
        </mxCell>
        <mxCell id="qTxGkBUJVbdwnP7Ffih2-277" style="edgeStyle=orthogonalEdgeStyle;rounded=0;orthogonalLoop=1;jettySize=auto;html=1;exitX=0.12;exitY=1;exitDx=0;exitDy=0;exitPerimeter=0;entryX=0;entryY=0.5;entryDx=0;entryDy=0;" edge="1" parent="1" source="qTxGkBUJVbdwnP7Ffih2-125" target="qTxGkBUJVbdwnP7Ffih2-131">
          <mxGeometry relative="1" as="geometry">
            <Array as="points">
              <mxPoint x="803" y="655" />
            </Array>
          </mxGeometry>
        </mxCell>
        <mxCell id="qTxGkBUJVbdwnP7Ffih2-278" style="edgeStyle=orthogonalEdgeStyle;rounded=0;orthogonalLoop=1;jettySize=auto;html=1;exitX=0.12;exitY=1;exitDx=0;exitDy=0;exitPerimeter=0;entryX=0;entryY=0.5;entryDx=0;entryDy=0;" edge="1" parent="1" source="qTxGkBUJVbdwnP7Ffih2-125" target="qTxGkBUJVbdwnP7Ffih2-132">
          <mxGeometry relative="1" as="geometry">
            <Array as="points">
              <mxPoint x="803" y="735" />
            </Array>
          </mxGeometry>
        </mxCell>
        <mxCell id="qTxGkBUJVbdwnP7Ffih2-125" value="product-attributes/" style="rounded=0;whiteSpace=wrap;html=1;points=[[0,0,0,0,0],[0,0.25,0,0,0],[0,0.5,0,0,0],[0,0.75,0,0,0],[0,1,0,0,0],[0.12,1,0,0,0],[0.25,0,0,0,0],[0.5,0,0,0,0],[0.5,1,0,0,0],[0.75,0,0,0,0],[0.75,1,0,0,0],[1,0,0,0,0],[1,0.25,0,0,0],[1,0.5,0,0,0],[1,0.75,0,0,0],[1,1,0,0,0]];fillColor=#bac8d3;strokeColor=#23445d;" vertex="1" parent="1">
          <mxGeometry x="790" y="200" width="110" height="30" as="geometry" />
        </mxCell>
        <mxCell id="qTxGkBUJVbdwnP7Ffih2-303" style="edgeStyle=orthogonalEdgeStyle;rounded=0;orthogonalLoop=1;jettySize=auto;html=1;exitX=0.5;exitY=1;exitDx=0;exitDy=0;entryX=0.5;entryY=0;entryDx=0;entryDy=0;" edge="1" parent="1" source="qTxGkBUJVbdwnP7Ffih2-126" target="qTxGkBUJVbdwnP7Ffih2-249">
          <mxGeometry relative="1" as="geometry" />
        </mxCell>
        <mxCell id="qTxGkBUJVbdwnP7Ffih2-126" value="{id}/" style="rounded=0;whiteSpace=wrap;html=1;fillColor=#dae8fc;strokeColor=#6c8ebf;" vertex="1" parent="1">
          <mxGeometry x="820" y="240" width="80" height="30" as="geometry" />
        </mxCell>
        <mxCell id="qTxGkBUJVbdwnP7Ffih2-304" style="edgeStyle=orthogonalEdgeStyle;rounded=0;orthogonalLoop=1;jettySize=auto;html=1;exitX=0.5;exitY=1;exitDx=0;exitDy=0;entryX=0.5;entryY=0;entryDx=0;entryDy=0;" edge="1" parent="1" source="qTxGkBUJVbdwnP7Ffih2-127" target="qTxGkBUJVbdwnP7Ffih2-250">
          <mxGeometry relative="1" as="geometry" />
        </mxCell>
        <mxCell id="qTxGkBUJVbdwnP7Ffih2-127" value="" style="rounded=0;whiteSpace=wrap;html=1;fillColor=#dae8fc;strokeColor=#6c8ebf;" vertex="1" parent="1">
          <mxGeometry x="820" y="320" width="80" height="30" as="geometry" />
        </mxCell>
        <mxCell id="qTxGkBUJVbdwnP7Ffih2-305" style="edgeStyle=orthogonalEdgeStyle;rounded=0;orthogonalLoop=1;jettySize=auto;html=1;exitX=0.5;exitY=1;exitDx=0;exitDy=0;entryX=0.5;entryY=0;entryDx=0;entryDy=0;" edge="1" parent="1" source="qTxGkBUJVbdwnP7Ffih2-128" target="qTxGkBUJVbdwnP7Ffih2-251">
          <mxGeometry relative="1" as="geometry" />
        </mxCell>
        <mxCell id="qTxGkBUJVbdwnP7Ffih2-128" value="" style="rounded=0;whiteSpace=wrap;html=1;fillColor=#d5e8d4;strokeColor=#82b366;" vertex="1" parent="1">
          <mxGeometry x="820" y="400" width="80" height="30" as="geometry" />
        </mxCell>
        <mxCell id="qTxGkBUJVbdwnP7Ffih2-306" style="edgeStyle=orthogonalEdgeStyle;rounded=0;orthogonalLoop=1;jettySize=auto;html=1;exitX=0.5;exitY=1;exitDx=0;exitDy=0;entryX=0.5;entryY=0;entryDx=0;entryDy=0;" edge="1" parent="1" source="qTxGkBUJVbdwnP7Ffih2-129" target="qTxGkBUJVbdwnP7Ffih2-252">
          <mxGeometry relative="1" as="geometry" />
        </mxCell>
        <mxCell id="qTxGkBUJVbdwnP7Ffih2-129" value="{id}/" style="rounded=0;whiteSpace=wrap;html=1;fillColor=#e1d5e7;strokeColor=#9673a6;" vertex="1" parent="1">
          <mxGeometry x="820" y="480" width="80" height="30" as="geometry" />
        </mxCell>
        <mxCell id="qTxGkBUJVbdwnP7Ffih2-307" style="edgeStyle=orthogonalEdgeStyle;rounded=0;orthogonalLoop=1;jettySize=auto;html=1;exitX=0.5;exitY=1;exitDx=0;exitDy=0;entryX=0.5;entryY=0;entryDx=0;entryDy=0;" edge="1" parent="1" source="qTxGkBUJVbdwnP7Ffih2-130" target="qTxGkBUJVbdwnP7Ffih2-253">
          <mxGeometry relative="1" as="geometry" />
        </mxCell>
        <mxCell id="qTxGkBUJVbdwnP7Ffih2-130" value="{id}/" style="rounded=0;whiteSpace=wrap;html=1;fillColor=#ffe6cc;strokeColor=#d79b00;" vertex="1" parent="1">
          <mxGeometry x="820" y="560" width="80" height="30" as="geometry" />
        </mxCell>
        <mxCell id="qTxGkBUJVbdwnP7Ffih2-309" style="edgeStyle=orthogonalEdgeStyle;rounded=0;orthogonalLoop=1;jettySize=auto;html=1;exitX=0.5;exitY=1;exitDx=0;exitDy=0;entryX=0.5;entryY=0;entryDx=0;entryDy=0;" edge="1" parent="1" source="qTxGkBUJVbdwnP7Ffih2-131" target="qTxGkBUJVbdwnP7Ffih2-254">
          <mxGeometry relative="1" as="geometry" />
        </mxCell>
        <mxCell id="qTxGkBUJVbdwnP7Ffih2-131" value="{id}/" style="rounded=0;whiteSpace=wrap;html=1;fillColor=#f8cecc;strokeColor=#b85450;" vertex="1" parent="1">
          <mxGeometry x="820" y="640" width="80" height="30" as="geometry" />
        </mxCell>
        <mxCell id="qTxGkBUJVbdwnP7Ffih2-310" style="edgeStyle=orthogonalEdgeStyle;rounded=0;orthogonalLoop=1;jettySize=auto;html=1;exitX=0.5;exitY=1;exitDx=0;exitDy=0;entryX=0.5;entryY=0;entryDx=0;entryDy=0;" edge="1" parent="1" source="qTxGkBUJVbdwnP7Ffih2-132" target="qTxGkBUJVbdwnP7Ffih2-255">
          <mxGeometry relative="1" as="geometry" />
        </mxCell>
        <mxCell id="qTxGkBUJVbdwnP7Ffih2-132" value="bulk-update/" style="rounded=0;whiteSpace=wrap;html=1;fillColor=#ffe6cc;strokeColor=#d79b00;" vertex="1" parent="1">
          <mxGeometry x="820" y="720" width="80" height="30" as="geometry" />
        </mxCell>
        <mxCell id="qTxGkBUJVbdwnP7Ffih2-142" value="retrieve" style="rounded=1;whiteSpace=wrap;html=1;fillColor=#f5f5f5;fontColor=#333333;strokeColor=#666666;fontFamily=Cascadia Code;fontSource=https%3A%2F%2Ffonts.googleapis.com%2Fcss%3Ffamily%3DCascadia%2BCode;fontSize=10;" vertex="1" parent="1">
          <mxGeometry x="100" y="280" width="80" height="30" as="geometry" />
        </mxCell>
        <mxCell id="qTxGkBUJVbdwnP7Ffih2-143" value="list" style="rounded=1;whiteSpace=wrap;html=1;fillColor=#f5f5f5;fontColor=#333333;strokeColor=#666666;fontFamily=Cascadia Code;fontSource=https%3A%2F%2Ffonts.googleapis.com%2Fcss%3Ffamily%3DCascadia%2BCode;fontSize=10;" vertex="1" parent="1">
          <mxGeometry x="100" y="360" width="80" height="30" as="geometry" />
        </mxCell>
        <mxCell id="qTxGkBUJVbdwnP7Ffih2-144" value="&lt;font data-font-src=&quot;https://fonts.googleapis.com/css?family=Cascadia+Code&quot; face=&quot;Cascadia Code&quot;&gt;create&lt;/font&gt;" style="rounded=1;whiteSpace=wrap;html=1;fillColor=#f5f5f5;fontColor=#333333;strokeColor=#666666;fontSize=10;" vertex="1" parent="1">
          <mxGeometry x="100" y="440" width="80" height="30" as="geometry" />
        </mxCell>
        <mxCell id="qTxGkBUJVbdwnP7Ffih2-145" value="&lt;font data-font-src=&quot;https://fonts.googleapis.com/css?family=Cascadia+Code&quot; face=&quot;Cascadia Code&quot;&gt;update&lt;/font&gt;" style="rounded=1;whiteSpace=wrap;html=1;fillColor=#f5f5f5;fontColor=#333333;strokeColor=#666666;fontSize=10;" vertex="1" parent="1">
          <mxGeometry x="100" y="520" width="80" height="30" as="geometry" />
        </mxCell>
        <mxCell id="qTxGkBUJVbdwnP7Ffih2-146" value="&lt;font face=&quot;Cascadia Code&quot; data-font-src=&quot;https://fonts.googleapis.com/css?family=Cascadia+Code&quot;&gt;partial_update&lt;/font&gt;" style="rounded=1;whiteSpace=wrap;html=1;fillColor=#f5f5f5;fontColor=#333333;strokeColor=#666666;fontSize=9;" vertex="1" parent="1">
          <mxGeometry x="100" y="600" width="80" height="30" as="geometry" />
        </mxCell>
        <mxCell id="qTxGkBUJVbdwnP7Ffih2-147" value="&lt;font style=&quot;font-size: 10px;&quot; data-font-src=&quot;https://fonts.googleapis.com/css?family=Cascadia+Code&quot; face=&quot;Cascadia Code&quot;&gt;destroy&lt;/font&gt;" style="rounded=1;whiteSpace=wrap;html=1;fillColor=#f5f5f5;fontColor=#333333;strokeColor=#666666;" vertex="1" parent="1">
          <mxGeometry x="100" y="680" width="80" height="30" as="geometry" />
        </mxCell>
        <mxCell id="qTxGkBUJVbdwnP7Ffih2-148" value="retrieve" style="rounded=1;whiteSpace=wrap;html=1;fillColor=#f5f5f5;fontColor=#333333;strokeColor=#666666;fontFamily=Cascadia Code;fontSource=https%3A%2F%2Ffonts.googleapis.com%2Fcss%3Ffamily%3DCascadia%2BCode;fontSize=10;" vertex="1" parent="1">
          <mxGeometry x="220" y="280" width="80" height="30" as="geometry" />
        </mxCell>
        <mxCell id="qTxGkBUJVbdwnP7Ffih2-149" value="list" style="rounded=1;whiteSpace=wrap;html=1;fillColor=#f5f5f5;fontColor=#333333;strokeColor=#666666;fontFamily=Cascadia Code;fontSource=https%3A%2F%2Ffonts.googleapis.com%2Fcss%3Ffamily%3DCascadia%2BCode;fontSize=10;" vertex="1" parent="1">
          <mxGeometry x="220" y="360" width="80" height="30" as="geometry" />
        </mxCell>
        <mxCell id="qTxGkBUJVbdwnP7Ffih2-150" value="&lt;font data-font-src=&quot;https://fonts.googleapis.com/css?family=Cascadia+Code&quot; face=&quot;Cascadia Code&quot;&gt;create&lt;/font&gt;" style="rounded=1;whiteSpace=wrap;html=1;fillColor=#f5f5f5;fontColor=#333333;strokeColor=#666666;fontFamily=Cascadia Code;fontSource=https%3A%2F%2Ffonts.googleapis.com%2Fcss%3Ffamily%3DCascadia%2BCode;fontSize=10;" vertex="1" parent="1">
          <mxGeometry x="220" y="440" width="80" height="30" as="geometry" />
        </mxCell>
        <mxCell id="qTxGkBUJVbdwnP7Ffih2-151" value="&lt;span style=&quot;font-family: &amp;quot;Cascadia Code&amp;quot;;&quot;&gt;update&lt;/span&gt;" style="rounded=1;whiteSpace=wrap;html=1;fillColor=#f5f5f5;fontColor=#333333;strokeColor=#666666;fontSize=10;" vertex="1" parent="1">
          <mxGeometry x="220" y="520" width="80" height="30" as="geometry" />
        </mxCell>
        <mxCell id="qTxGkBUJVbdwnP7Ffih2-152" value="&lt;span style=&quot;font-family: &amp;quot;Cascadia Code&amp;quot;; font-size: 9px;&quot;&gt;partial_update&lt;/span&gt;" style="rounded=1;whiteSpace=wrap;html=1;fillColor=#f5f5f5;fontColor=#333333;strokeColor=#666666;" vertex="1" parent="1">
          <mxGeometry x="220" y="600" width="80" height="30" as="geometry" />
        </mxCell>
        <mxCell id="qTxGkBUJVbdwnP7Ffih2-153" value="&lt;span style=&quot;font-family: &amp;quot;Cascadia Code&amp;quot;; font-size: 10px;&quot;&gt;destroy&lt;/span&gt;" style="rounded=1;whiteSpace=wrap;html=1;fillColor=#f5f5f5;fontColor=#333333;strokeColor=#666666;" vertex="1" parent="1">
          <mxGeometry x="220" y="680" width="80" height="30" as="geometry" />
        </mxCell>
        <mxCell id="qTxGkBUJVbdwnP7Ffih2-154" value="&lt;font style=&quot;font-size: 10px;&quot; face=&quot;Cascadia Code&quot;&gt;sales_chart&lt;/font&gt;" style="rounded=1;whiteSpace=wrap;html=1;fillColor=#f5f5f5;fontColor=#333333;strokeColor=#666666;" vertex="1" parent="1">
          <mxGeometry x="220" y="760" width="80" height="30" as="geometry" />
        </mxCell>
        <mxCell id="qTxGkBUJVbdwnP7Ffih2-155" value="&lt;span style=&quot;font-family: &amp;quot;Cascadia Code&amp;quot;; font-size: 10px;&quot;&gt;share_chart&lt;/span&gt;" style="rounded=1;whiteSpace=wrap;html=1;fillColor=#f5f5f5;fontColor=#333333;strokeColor=#666666;" vertex="1" parent="1">
          <mxGeometry x="220" y="840" width="80" height="30" as="geometry" />
        </mxCell>
        <mxCell id="qTxGkBUJVbdwnP7Ffih2-156" value="&lt;span style=&quot;font-family: &amp;quot;Cascadia Code&amp;quot;;&quot;&gt;&lt;font style=&quot;font-size: 9px;&quot;&gt;summary_stats&lt;/font&gt;&lt;/span&gt;" style="rounded=1;whiteSpace=wrap;html=1;fillColor=#f5f5f5;fontColor=#333333;strokeColor=#666666;" vertex="1" parent="1">
          <mxGeometry x="220" y="920" width="80" height="30" as="geometry" />
        </mxCell>
        <mxCell id="qTxGkBUJVbdwnP7Ffih2-157" value="&lt;span style=&quot;font-family: &amp;quot;Cascadia Code&amp;quot;;&quot;&gt;&lt;font style=&quot;font-size: 9px;&quot;&gt;paginated_list&lt;/font&gt;&lt;/span&gt;" style="rounded=1;whiteSpace=wrap;html=1;fillColor=#f5f5f5;fontColor=#333333;strokeColor=#666666;" vertex="1" parent="1">
          <mxGeometry x="220" y="1000" width="80" height="30" as="geometry" />
        </mxCell>
        <mxCell id="qTxGkBUJVbdwnP7Ffih2-201" value="retrieve" style="rounded=1;whiteSpace=wrap;html=1;fillColor=#f5f5f5;fontColor=#333333;strokeColor=#666666;fontFamily=Cascadia Code;fontSource=https%3A%2F%2Ffonts.googleapis.com%2Fcss%3Ffamily%3DCascadia%2BCode;fontSize=10;" vertex="1" parent="1">
          <mxGeometry x="340" y="280" width="80" height="30" as="geometry" />
        </mxCell>
        <mxCell id="qTxGkBUJVbdwnP7Ffih2-202" value="list" style="rounded=1;whiteSpace=wrap;html=1;fillColor=#f5f5f5;fontColor=#333333;strokeColor=#666666;fontFamily=Cascadia Code;fontSource=https%3A%2F%2Ffonts.googleapis.com%2Fcss%3Ffamily%3DCascadia%2BCode;fontSize=10;" vertex="1" parent="1">
          <mxGeometry x="340" y="360" width="80" height="30" as="geometry" />
        </mxCell>
        <mxCell id="qTxGkBUJVbdwnP7Ffih2-203" value="create" style="rounded=1;whiteSpace=wrap;html=1;fillColor=#f5f5f5;fontColor=#333333;strokeColor=#666666;fontFamily=Cascadia Code;fontSource=https%3A%2F%2Ffonts.googleapis.com%2Fcss%3Ffamily%3DCascadia%2BCode;fontSize=10;" vertex="1" parent="1">
          <mxGeometry x="340" y="440" width="80" height="30" as="geometry" />
        </mxCell>
        <mxCell id="qTxGkBUJVbdwnP7Ffih2-204" value="&lt;span style=&quot;font-family: &amp;quot;Cascadia Code&amp;quot;;&quot;&gt;update&lt;/span&gt;" style="rounded=1;whiteSpace=wrap;html=1;fillColor=#f5f5f5;fontColor=#333333;strokeColor=#666666;fontSize=10;" vertex="1" parent="1">
          <mxGeometry x="340" y="520" width="80" height="30" as="geometry" />
        </mxCell>
        <mxCell id="qTxGkBUJVbdwnP7Ffih2-205" value="&lt;span style=&quot;font-family: &amp;quot;Cascadia Code&amp;quot;; font-size: 9px;&quot;&gt;partial_update&lt;/span&gt;" style="rounded=1;whiteSpace=wrap;html=1;fillColor=#f5f5f5;fontColor=#333333;strokeColor=#666666;" vertex="1" parent="1">
          <mxGeometry x="340" y="600" width="80" height="30" as="geometry" />
        </mxCell>
        <mxCell id="qTxGkBUJVbdwnP7Ffih2-206" value="&lt;span style=&quot;font-family: &amp;quot;Cascadia Code&amp;quot;; font-size: 10px;&quot;&gt;destroy&lt;/span&gt;" style="rounded=1;whiteSpace=wrap;html=1;fillColor=#f5f5f5;fontColor=#333333;strokeColor=#666666;" vertex="1" parent="1">
          <mxGeometry x="340" y="680" width="80" height="30" as="geometry" />
        </mxCell>
        <mxCell id="qTxGkBUJVbdwnP7Ffih2-207" value="&lt;span style=&quot;font-family: &amp;quot;Cascadia Code&amp;quot;; font-size: 10px;&quot;&gt;search&lt;/span&gt;" style="rounded=1;whiteSpace=wrap;html=1;fillColor=#f5f5f5;fontColor=#333333;strokeColor=#666666;" vertex="1" parent="1">
          <mxGeometry x="340" y="760" width="80" height="30" as="geometry" />
        </mxCell>
        <mxCell id="qTxGkBUJVbdwnP7Ffih2-217" value="retrieve" style="rounded=1;whiteSpace=wrap;html=1;fillColor=#f5f5f5;fontColor=#333333;strokeColor=#666666;fontFamily=Cascadia Code;fontSource=https%3A%2F%2Ffonts.googleapis.com%2Fcss%3Ffamily%3DCascadia%2BCode;fontSize=10;" vertex="1" parent="1">
          <mxGeometry x="460" y="280" width="80" height="30" as="geometry" />
        </mxCell>
        <mxCell id="qTxGkBUJVbdwnP7Ffih2-218" value="list" style="rounded=1;whiteSpace=wrap;html=1;fillColor=#f5f5f5;fontColor=#333333;strokeColor=#666666;fontFamily=Cascadia Code;fontSource=https%3A%2F%2Ffonts.googleapis.com%2Fcss%3Ffamily%3DCascadia%2BCode;fontSize=10;" vertex="1" parent="1">
          <mxGeometry x="460" y="360" width="80" height="30" as="geometry" />
        </mxCell>
        <mxCell id="qTxGkBUJVbdwnP7Ffih2-219" value="create" style="rounded=1;whiteSpace=wrap;html=1;fillColor=#f5f5f5;fontColor=#333333;strokeColor=#666666;fontFamily=Cascadia Code;fontSource=https%3A%2F%2Ffonts.googleapis.com%2Fcss%3Ffamily%3DCascadia%2BCode;fontSize=10;" vertex="1" parent="1">
          <mxGeometry x="460" y="440" width="80" height="30" as="geometry" />
        </mxCell>
        <mxCell id="qTxGkBUJVbdwnP7Ffih2-220" value="&lt;span style=&quot;font-family: &amp;quot;Cascadia Code&amp;quot;;&quot;&gt;update&lt;/span&gt;" style="rounded=1;whiteSpace=wrap;html=1;fillColor=#f5f5f5;fontColor=#333333;strokeColor=#666666;fontSize=10;" vertex="1" parent="1">
          <mxGeometry x="460" y="520" width="80" height="30" as="geometry" />
        </mxCell>
        <mxCell id="qTxGkBUJVbdwnP7Ffih2-221" value="&lt;span style=&quot;font-family: &amp;quot;Cascadia Code&amp;quot;; font-size: 9px;&quot;&gt;partial_update&lt;/span&gt;" style="rounded=1;whiteSpace=wrap;html=1;fillColor=#f5f5f5;fontColor=#333333;strokeColor=#666666;" vertex="1" parent="1">
          <mxGeometry x="460" y="600" width="80" height="30" as="geometry" />
        </mxCell>
        <mxCell id="qTxGkBUJVbdwnP7Ffih2-222" value="&lt;span style=&quot;font-family: &amp;quot;Cascadia Code&amp;quot;; font-size: 10px;&quot;&gt;destroy&lt;/span&gt;" style="rounded=1;whiteSpace=wrap;html=1;fillColor=#f5f5f5;fontColor=#333333;strokeColor=#666666;" vertex="1" parent="1">
          <mxGeometry x="460" y="680" width="80" height="30" as="geometry" />
        </mxCell>
        <mxCell id="qTxGkBUJVbdwnP7Ffih2-223" value="&lt;span style=&quot;font-family: &amp;quot;Cascadia Code&amp;quot;; font-size: 10px;&quot;&gt;bulk_update&lt;/span&gt;" style="rounded=1;whiteSpace=wrap;html=1;fillColor=#f5f5f5;fontColor=#333333;strokeColor=#666666;" vertex="1" parent="1">
          <mxGeometry x="460" y="760" width="80" height="30" as="geometry" />
        </mxCell>
        <mxCell id="qTxGkBUJVbdwnP7Ffih2-224" value="&lt;span style=&quot;font-family: &amp;quot;Cascadia Code&amp;quot;; font-size: 10px;&quot;&gt;bulk_delete&lt;/span&gt;" style="rounded=1;whiteSpace=wrap;html=1;fillColor=#f5f5f5;fontColor=#333333;strokeColor=#666666;" vertex="1" parent="1">
          <mxGeometry x="460" y="840" width="80" height="30" as="geometry" />
        </mxCell>
        <mxCell id="qTxGkBUJVbdwnP7Ffih2-225" value="&lt;span style=&quot;font-family: &amp;quot;Cascadia Code&amp;quot;; font-size: 10px;&quot;&gt;bulk_create&lt;/span&gt;" style="rounded=1;whiteSpace=wrap;html=1;fillColor=#f5f5f5;fontColor=#333333;strokeColor=#666666;" vertex="1" parent="1">
          <mxGeometry x="460" y="920" width="80" height="30" as="geometry" />
        </mxCell>
        <mxCell id="qTxGkBUJVbdwnP7Ffih2-234" value="retrieve" style="rounded=1;whiteSpace=wrap;html=1;fillColor=#f5f5f5;fontColor=#333333;strokeColor=#666666;fontFamily=Cascadia Code;fontSource=https%3A%2F%2Ffonts.googleapis.com%2Fcss%3Ffamily%3DCascadia%2BCode;fontSize=10;" vertex="1" parent="1">
          <mxGeometry x="580" y="280" width="80" height="30" as="geometry" />
        </mxCell>
        <mxCell id="qTxGkBUJVbdwnP7Ffih2-235" value="list" style="rounded=1;whiteSpace=wrap;html=1;fillColor=#f5f5f5;fontColor=#333333;strokeColor=#666666;fontFamily=Cascadia Code;fontSource=https%3A%2F%2Ffonts.googleapis.com%2Fcss%3Ffamily%3DCascadia%2BCode;fontSize=10;" vertex="1" parent="1">
          <mxGeometry x="580" y="360" width="80" height="30" as="geometry" />
        </mxCell>
        <mxCell id="qTxGkBUJVbdwnP7Ffih2-236" value="create" style="rounded=1;whiteSpace=wrap;html=1;fillColor=#f5f5f5;fontColor=#333333;strokeColor=#666666;fontFamily=Cascadia Code;fontSource=https%3A%2F%2Ffonts.googleapis.com%2Fcss%3Ffamily%3DCascadia%2BCode;fontSize=10;" vertex="1" parent="1">
          <mxGeometry x="580" y="440" width="80" height="30" as="geometry" />
        </mxCell>
        <mxCell id="qTxGkBUJVbdwnP7Ffih2-237" value="&lt;span style=&quot;font-family: &amp;quot;Cascadia Code&amp;quot;;&quot;&gt;update&lt;/span&gt;" style="rounded=1;whiteSpace=wrap;html=1;fillColor=#f5f5f5;fontColor=#333333;strokeColor=#666666;fontSize=10;" vertex="1" parent="1">
          <mxGeometry x="580" y="520" width="80" height="30" as="geometry" />
        </mxCell>
        <mxCell id="qTxGkBUJVbdwnP7Ffih2-238" value="&lt;span style=&quot;font-family: &amp;quot;Cascadia Code&amp;quot;; font-size: 9px;&quot;&gt;partial_update&lt;/span&gt;" style="rounded=1;whiteSpace=wrap;html=1;fillColor=#f5f5f5;fontColor=#333333;strokeColor=#666666;" vertex="1" parent="1">
          <mxGeometry x="580" y="600" width="80" height="30" as="geometry" />
        </mxCell>
        <mxCell id="qTxGkBUJVbdwnP7Ffih2-239" value="&lt;span style=&quot;font-family: &amp;quot;Cascadia Code&amp;quot;; font-size: 10px;&quot;&gt;destroy&lt;/span&gt;" style="rounded=1;whiteSpace=wrap;html=1;fillColor=#f5f5f5;fontColor=#333333;strokeColor=#666666;" vertex="1" parent="1">
          <mxGeometry x="580" y="680" width="80" height="30" as="geometry" />
        </mxCell>
        <mxCell id="qTxGkBUJVbdwnP7Ffih2-240" value="&lt;span style=&quot;font-family: &amp;quot;Cascadia Code&amp;quot;;&quot;&gt;&lt;font style=&quot;font-size: 9px;&quot;&gt;paginated_list&lt;/font&gt;&lt;/span&gt;" style="rounded=1;whiteSpace=wrap;html=1;fillColor=#f5f5f5;fontColor=#333333;strokeColor=#666666;" vertex="1" parent="1">
          <mxGeometry x="580" y="760" width="80" height="30" as="geometry" />
        </mxCell>
        <mxCell id="qTxGkBUJVbdwnP7Ffih2-241" value="&lt;span style=&quot;font-family: &amp;quot;Cascadia Code&amp;quot;; font-size: 10px;&quot;&gt;detail&lt;/span&gt;" style="rounded=1;whiteSpace=wrap;html=1;fillColor=#f5f5f5;fontColor=#333333;strokeColor=#666666;" vertex="1" parent="1">
          <mxGeometry x="580" y="840" width="80" height="30" as="geometry" />
        </mxCell>
        <mxCell id="qTxGkBUJVbdwnP7Ffih2-242" value="retrieve" style="rounded=1;whiteSpace=wrap;html=1;fillColor=#f5f5f5;fontColor=#333333;strokeColor=#666666;fontFamily=Cascadia Code;fontSource=https%3A%2F%2Ffonts.googleapis.com%2Fcss%3Ffamily%3DCascadia%2BCode;fontSize=10;" vertex="1" parent="1">
          <mxGeometry x="700" y="280" width="80" height="30" as="geometry" />
        </mxCell>
        <mxCell id="qTxGkBUJVbdwnP7Ffih2-243" value="list" style="rounded=1;whiteSpace=wrap;html=1;fillColor=#f5f5f5;fontColor=#333333;strokeColor=#666666;fontFamily=Cascadia Code;fontSource=https%3A%2F%2Ffonts.googleapis.com%2Fcss%3Ffamily%3DCascadia%2BCode;fontSize=10;" vertex="1" parent="1">
          <mxGeometry x="700" y="360" width="80" height="30" as="geometry" />
        </mxCell>
        <mxCell id="qTxGkBUJVbdwnP7Ffih2-244" value="create" style="rounded=1;whiteSpace=wrap;html=1;fillColor=#f5f5f5;fontColor=#333333;strokeColor=#666666;fontFamily=Cascadia Code;fontSource=https%3A%2F%2Ffonts.googleapis.com%2Fcss%3Ffamily%3DCascadia%2BCode;fontSize=10;" vertex="1" parent="1">
          <mxGeometry x="700" y="440" width="80" height="30" as="geometry" />
        </mxCell>
        <mxCell id="qTxGkBUJVbdwnP7Ffih2-245" value="&lt;span style=&quot;font-family: &amp;quot;Cascadia Code&amp;quot;;&quot;&gt;update&lt;/span&gt;" style="rounded=1;whiteSpace=wrap;html=1;fillColor=#f5f5f5;fontColor=#333333;strokeColor=#666666;fontSize=10;" vertex="1" parent="1">
          <mxGeometry x="700" y="520" width="80" height="30" as="geometry" />
        </mxCell>
        <mxCell id="qTxGkBUJVbdwnP7Ffih2-246" value="&lt;span style=&quot;font-family: &amp;quot;Cascadia Code&amp;quot;; font-size: 9px;&quot;&gt;partial_update&lt;/span&gt;" style="rounded=1;whiteSpace=wrap;html=1;fillColor=#f5f5f5;fontColor=#333333;strokeColor=#666666;" vertex="1" parent="1">
          <mxGeometry x="700" y="600" width="80" height="30" as="geometry" />
        </mxCell>
        <mxCell id="qTxGkBUJVbdwnP7Ffih2-247" value="&lt;span style=&quot;font-family: &amp;quot;Cascadia Code&amp;quot;; font-size: 10px;&quot;&gt;destroy&lt;/span&gt;" style="rounded=1;whiteSpace=wrap;html=1;fillColor=#f5f5f5;fontColor=#333333;strokeColor=#666666;" vertex="1" parent="1">
          <mxGeometry x="700" y="680" width="80" height="30" as="geometry" />
        </mxCell>
        <mxCell id="qTxGkBUJVbdwnP7Ffih2-248" value="&lt;span style=&quot;font-family: &amp;quot;Cascadia Code&amp;quot;;&quot;&gt;&lt;font style=&quot;font-size: 9px;&quot;&gt;products_chart&lt;/font&gt;&lt;/span&gt;" style="rounded=1;whiteSpace=wrap;html=1;fillColor=#f5f5f5;fontColor=#333333;strokeColor=#666666;" vertex="1" parent="1">
          <mxGeometry x="700" y="760" width="80" height="30" as="geometry" />
        </mxCell>
        <mxCell id="qTxGkBUJVbdwnP7Ffih2-249" value="retrieve" style="rounded=1;whiteSpace=wrap;html=1;fillColor=#f5f5f5;fontColor=#333333;strokeColor=#666666;fontFamily=Cascadia Code;fontSource=https%3A%2F%2Ffonts.googleapis.com%2Fcss%3Ffamily%3DCascadia%2BCode;fontSize=10;" vertex="1" parent="1">
          <mxGeometry x="820" y="280" width="80" height="30" as="geometry" />
        </mxCell>
        <mxCell id="qTxGkBUJVbdwnP7Ffih2-250" value="list" style="rounded=1;whiteSpace=wrap;html=1;fillColor=#f5f5f5;fontColor=#333333;strokeColor=#666666;fontFamily=Cascadia Code;fontSource=https%3A%2F%2Ffonts.googleapis.com%2Fcss%3Ffamily%3DCascadia%2BCode;fontSize=10;" vertex="1" parent="1">
          <mxGeometry x="820" y="360" width="80" height="30" as="geometry" />
        </mxCell>
        <mxCell id="qTxGkBUJVbdwnP7Ffih2-251" value="create" style="rounded=1;whiteSpace=wrap;html=1;fillColor=#f5f5f5;fontColor=#333333;strokeColor=#666666;fontFamily=Cascadia Code;fontSource=https%3A%2F%2Ffonts.googleapis.com%2Fcss%3Ffamily%3DCascadia%2BCode;fontSize=10;" vertex="1" parent="1">
          <mxGeometry x="820" y="440" width="80" height="30" as="geometry" />
        </mxCell>
        <mxCell id="qTxGkBUJVbdwnP7Ffih2-252" value="&lt;span style=&quot;font-family: &amp;quot;Cascadia Code&amp;quot;;&quot;&gt;update&lt;/span&gt;" style="rounded=1;whiteSpace=wrap;html=1;fillColor=#f5f5f5;fontColor=#333333;strokeColor=#666666;fontSize=10;" vertex="1" parent="1">
          <mxGeometry x="820" y="520" width="80" height="30" as="geometry" />
        </mxCell>
        <mxCell id="qTxGkBUJVbdwnP7Ffih2-253" value="&lt;span style=&quot;font-family: &amp;quot;Cascadia Code&amp;quot;; font-size: 9px;&quot;&gt;partial_update&lt;/span&gt;" style="rounded=1;whiteSpace=wrap;html=1;fillColor=#f5f5f5;fontColor=#333333;strokeColor=#666666;" vertex="1" parent="1">
          <mxGeometry x="820" y="600" width="80" height="30" as="geometry" />
        </mxCell>
        <mxCell id="qTxGkBUJVbdwnP7Ffih2-254" value="&lt;span style=&quot;font-family: &amp;quot;Cascadia Code&amp;quot;; font-size: 10px;&quot;&gt;destroy&lt;/span&gt;" style="rounded=1;whiteSpace=wrap;html=1;fillColor=#f5f5f5;fontColor=#333333;strokeColor=#666666;" vertex="1" parent="1">
          <mxGeometry x="820" y="680" width="80" height="30" as="geometry" />
        </mxCell>
        <mxCell id="qTxGkBUJVbdwnP7Ffih2-255" value="&lt;span style=&quot;font-family: &amp;quot;Cascadia Code&amp;quot;; font-size: 10px;&quot;&gt;bulk_update&lt;/span&gt;" style="rounded=1;whiteSpace=wrap;html=1;fillColor=#f5f5f5;fontColor=#333333;strokeColor=#666666;" vertex="1" parent="1">
          <mxGeometry x="820" y="760" width="80" height="30" as="geometry" />
        </mxCell>
        <mxCell id="qTxGkBUJVbdwnP7Ffih2-313" value="" style="rounded=0;whiteSpace=wrap;html=1;fillColor=#dae8fc;strokeColor=#6c8ebf;" vertex="1" parent="1">
          <mxGeometry x="640" y="920" width="20" height="20" as="geometry" />
        </mxCell>
        <mxCell id="qTxGkBUJVbdwnP7Ffih2-314" value="Petición GET" style="text;html=1;align=left;verticalAlign=middle;whiteSpace=wrap;rounded=0;" vertex="1" parent="1">
          <mxGeometry x="670" y="920" width="80" height="20" as="geometry" />
        </mxCell>
        <mxCell id="qTxGkBUJVbdwnP7Ffih2-315" value="" style="rounded=0;whiteSpace=wrap;html=1;fillColor=#d5e8d4;strokeColor=#82b366;" vertex="1" parent="1">
          <mxGeometry x="640" y="950" width="20" height="20" as="geometry" />
        </mxCell>
        <mxCell id="qTxGkBUJVbdwnP7Ffih2-316" value="Petición POST" style="text;html=1;align=left;verticalAlign=middle;whiteSpace=wrap;rounded=0;" vertex="1" parent="1">
          <mxGeometry x="670" y="950" width="80" height="20" as="geometry" />
        </mxCell>
        <mxCell id="qTxGkBUJVbdwnP7Ffih2-317" value="" style="rounded=0;whiteSpace=wrap;html=1;fillColor=#e1d5e7;strokeColor=#9673a6;" vertex="1" parent="1">
          <mxGeometry x="640" y="980" width="20" height="20" as="geometry" />
        </mxCell>
        <mxCell id="qTxGkBUJVbdwnP7Ffih2-318" value="Petición PUT" style="text;html=1;align=left;verticalAlign=middle;whiteSpace=wrap;rounded=0;" vertex="1" parent="1">
          <mxGeometry x="670" y="980" width="80" height="20" as="geometry" />
        </mxCell>
        <mxCell id="qTxGkBUJVbdwnP7Ffih2-319" value="" style="rounded=0;whiteSpace=wrap;html=1;fillColor=#ffe6cc;strokeColor=#d79b00;" vertex="1" parent="1">
          <mxGeometry x="760" y="920" width="20" height="20" as="geometry" />
        </mxCell>
        <mxCell id="qTxGkBUJVbdwnP7Ffih2-320" value="Petición PATCH" style="text;html=1;align=left;verticalAlign=middle;whiteSpace=wrap;rounded=0;" vertex="1" parent="1">
          <mxGeometry x="790" y="920" width="100" height="20" as="geometry" />
        </mxCell>
        <mxCell id="qTxGkBUJVbdwnP7Ffih2-321" value="" style="rounded=0;whiteSpace=wrap;html=1;fillColor=#f8cecc;strokeColor=#b85450;" vertex="1" parent="1">
          <mxGeometry x="760" y="950" width="20" height="20" as="geometry" />
        </mxCell>
        <mxCell id="qTxGkBUJVbdwnP7Ffih2-322" value="Petición DELETE" style="text;html=1;align=left;verticalAlign=middle;whiteSpace=wrap;rounded=0;" vertex="1" parent="1">
          <mxGeometry x="790" y="950" width="100" height="20" as="geometry" />
        </mxCell>
        <mxCell id="qTxGkBUJVbdwnP7Ffih2-324" value="Método del Viewset" style="text;html=1;align=left;verticalAlign=middle;whiteSpace=wrap;rounded=0;" vertex="1" parent="1">
          <mxGeometry x="790" y="980" width="80" height="20" as="geometry" />
        </mxCell>
        <mxCell id="qTxGkBUJVbdwnP7Ffih2-325" value="" style="rounded=1;whiteSpace=wrap;html=1;fillColor=#f5f5f5;fontColor=#333333;strokeColor=#666666;" vertex="1" parent="1">
          <mxGeometry x="760" y="980" width="20" height="20" as="geometry" />
        </mxCell>
      </root>
    </mxGraphModel>
  </diagram>
</mxfile>
